<?xml version="1.0" standalone="no"?>
<!DOCTYPE svg PUBLIC "-//W3C//DTD SVG 1.1//EN" "http://www.w3.org/Graphics/SVG/1.1/DTD/svg11.dtd" >
<svg xmlns="http://www.w3.org/2000/svg">
<metadata>
This is a custom SVG webfont generated by Font Squirrel.
Copyright   : Copyright c 1991 Digital Typeface Corp
</metadata>
<defs>
<font id="BodoniDTCBold" horiz-adv-x="1153" >
<font-face units-per-em="2048" ascent="1638" descent="-410" />
<missing-glyph horiz-adv-x="575" />
<glyph unicode=" "  horiz-adv-x="575" />
<glyph unicode="&#x09;" horiz-adv-x="575" />
<glyph unicode="&#xa0;" horiz-adv-x="575" />
<glyph unicode="!" horiz-adv-x="641" d="M104 1147q90 35 140.5 94t79.5 158q29 -100 74.5 -157.5t138.5 -94.5q-49 -72 -83 -149.5t-57 -172.5q-27 -100 -38 -203.5t-11 -226.5h-55q0 133 -11.5 235.5t-37 206t-56.5 173t-84 137.5zM160 145q0 68 49 117t117 49q66 0 114.5 -49t48.5 -117q0 -66 -49 -114.5 t-114 -48.5q-68 0 -117 48.5t-49 114.5z" />
<glyph unicode="&#x22;" horiz-adv-x="366" d="M59 1374h91l-7 -545h-77zM215 1374h90l-4 -545h-80z" />
<glyph unicode="#" horiz-adv-x="1132" d="M59 604h303l29 207h-282v90h294l68 481h92l-65 -481h215l69 481h86l-63 -481h266l2 -90h-280l-29 -207h262l2 -88h-278l-72 -516h-88l69 516h-217l-71 -516h-92l69 516h-287zM455 604h217l28 207h-217z" />
<glyph unicode="$" d="M68 528h59l8 -49q23 -131 137.5 -278.5t333.5 -147.5q117 0 200 63.5t83 190.5q0 82 -48 139.5t-198 90.5l-240 55q-168 39 -251.5 139t-83.5 234q0 180 129 296.5t309 116.5v199h78v-203q49 0 159.5 -49t126.5 -49q23 0 33 15.5t10 27.5l5 47h61l4 -461h-57l-11 43 q-31 129 -126 249t-279 120q-115 0 -182.5 -63.5t-67.5 -157.5q0 -78 47 -128t156 -75l213 -47q217 -47 306 -144.5t89 -267.5q0 -201 -131 -322.5t-344 -121.5v-246h-80v252q-47 0 -169 40t-157 40q-33 0 -42 -28t-13 -44h-55z" />
<glyph unicode="%" horiz-adv-x="1554" d="M72 1016q0 127 76.5 242.5t199.5 115.5q113 0 193 -106.5t80 -251.5q0 -143 -80 -248.5t-195 -105.5q-121 0 -197.5 101t-76.5 253zM254 954q0 -86 6 -129t21.5 -76.5t64.5 -33.5q57 0 71.5 49t17.5 90t3 104v58v59q0 80 -3 119t-16 82t-71 43q-57 0 -72.5 -47 t-18.5 -125t-3 -105v-26v-62zM401 -27l664 1420h88l-664 -1420h-88zM934 346q0 127 76.5 243t199.5 116q113 0 193 -106.5t80 -252.5q0 -143 -80 -248.5t-195 -105.5q-121 0 -197.5 101t-76.5 253zM1116 285q0 -86 6 -129t21.5 -77t64.5 -34q57 0 71.5 49t17.5 90t3 105v57 v60q0 80 -3 118.5t-16 81.5t-71 43q-57 0 -72.5 -47t-18.5 -125t-3 -104v-27v-61z" />
<glyph unicode="&#x26;" horiz-adv-x="1589" d="M76 367q0 68 39 128t92 109t110.5 86t108.5 66q-43 57 -85 133t-42 178q0 139 100.5 227t243.5 88q106 0 178 -64.5t72 -170.5q0 -82 -29.5 -141.5t-152.5 -149.5l258 -317l110 133q37 45 94.5 73.5t126.5 28.5q76 0 132.5 -50t56.5 -126q0 -68 -43 -115t-111 -47 q-59 0 -98 37t-39 125q0 27 -3 34t-15 7q-33 0 -77 -51t-85 -105q72 -92 163 -184t185 -92q74 0 106.5 53t51.5 109l57 -21q-53 -158 -147.5 -259t-241.5 -101q-111 0 -186.5 61.5t-180.5 188.5q-88 -117 -183 -185.5t-216 -68.5q-147 0 -248.5 111.5t-101.5 271.5zM330 526 q0 -59 23.5 -113.5t64.5 -105.5q63 -78 109 -104.5t94 -26.5q59 0 98 37t67 76l-321 413q-45 -29 -90 -69.5t-45 -106.5zM537 1190q0 -82 45 -153.5t90 -129.5q74 51 114.5 106.5t40.5 131.5q0 66 -44 117t-109 51q-53 0 -95 -36t-42 -87z" />
<glyph unicode="'" horiz-adv-x="210" d="M59 1374h91l-7 -545h-77z" />
<glyph unicode="(" horiz-adv-x="561" d="M68 446q0 385 110.5 588t152.5 263.5t101 132.5l74 -76q-63 -78 -109.5 -147.5t-134.5 -252t-88 -501.5q0 -358 100.5 -538.5t130 -222.5t101.5 -130l-74 -84q-74 88 -129 172t-110.5 204.5t-90 274t-34.5 317.5z" />
<glyph unicode=")" horiz-adv-x="561" d="M55 -446q166 207 249 426t83 477q0 352 -172 663q-29 53 -58.5 95t-101.5 131l74 84q74 -88 128 -169t145.5 -280t91.5 -520q0 -385 -109 -584t-157 -267.5t-99 -131.5z" />
<glyph unicode="*" d="M150 1104q0 10 6 22.5t47 12.5q25 -4 49 -4q20 0 22 42t27 42q53 -68 117.5 -132.5t146.5 -87.5q0 92 -39 172q-43 70 -86 142q0 25 29 24q12 0 28.5 -6t22.5 -6t22.5 52.5t43.5 52.5q29 0 47 -54.5t24 -54.5q12 6 27.5 12t24.5 6q10 0 18 -8t8 -18q-47 -68 -85 -145.5 t-38 -168.5q158 78 200 148t62 70q27 0 27 -43q0 -25 10.5 -31t46.5 -6q31 0 50.5 -6.5t19.5 -20.5q0 -29 -40 -56.5t-40 -33.5q0 -16 15.5 -31.5t15.5 -30.5q0 -25 -33 -24q-51 14 -97 25.5t-67 11.5q-45 0 -77.5 -1t-75.5 -12q70 -104 175 -138t105 -54q0 -27 -30.5 -35 t-30.5 -20q0 -8 7 -35t15 -58q0 -31 -28 -30q-18 0 -53 28.5t-48 28.5q-2 0 -18 -24.5t-35 -24.5q-29 0 -31 116.5t-67 219.5q-33 -47 -57.5 -107.5t-24.5 -128.5l2 -45q0 -51 -31 -51q-18 0 -34.5 22.5t-20.5 22.5q-6 0 -44 -26.5t-52 -26.5q-29 0 -29 29q0 25 11.5 61.5 t11.5 38.5q0 8 -31 16t-31 29q0 27 90 49.5t199 140.5q-63 14 -135 15q-59 0 -121 -17.5t-72 -17.5q-25 0 -24 27q0 10 16 28.5t16 26.5q0 6 -39.5 36t-39.5 50z" />
<glyph unicode="+" d="M94 639v90h438l-2 463h91v-463h438v-90h-438v-463h-91v463h-436z" />
<glyph unicode="," horiz-adv-x="579" d="M115 147q0 66 48 116t113 50q88 0 138.5 -62.5t50.5 -160.5q0 -135 -74 -256t-246 -149l-8 61q127 23 184.5 107t57.5 159q-16 -12 -41 -22t-66 -10q-59 0 -108 50.5t-49 116.5z" />
<glyph unicode="-" horiz-adv-x="583" d="M0 358l80 181h504l-80 -181h-504z" />
<glyph unicode="." horiz-adv-x="579" d="M123 150q0 68 49 116.5t119 48.5q68 0 117 -49t49 -116q0 -68 -48.5 -118t-117.5 -50q-70 0 -119 49t-49 119z" />
<glyph unicode="/" horiz-adv-x="794" d="M-10 -500l555 1907h112l-555 -1907h-112z" />
<glyph unicode="0" d="M78 678q0 125 38 258t106.5 229.5t161.5 156.5t196 60q123 0 228 -80.5t163.5 -186t82 -212t23.5 -221.5q0 -139 -34.5 -262t-106.5 -220.5t-164 -156.5t-194 -59q-121 0 -225.5 71.5t-166 176t-85 215t-23.5 231.5zM379 555q0 -131 9 -240.5t44 -190.5t146 -81 q68 0 106.5 35t62 118t26.5 236.5t3 247.5q0 154 -6 287t-21.5 207.5t-51 110.5t-113.5 36q-123 0 -156 -96.5t-41 -252t-8 -292.5v-125z" />
<glyph unicode="1" d="M168 1022l164 100q180 106 317 244h156v-1300h158v-66h-631v66h172v935q0 41 -9.5 65t-39.5 24q-23 0 -48.5 -13.5t-39.5 -21.5l-170 -94z" />
<glyph unicode="2" d="M41 0q35 72 98.5 166t218.5 225l134 113q129 109 185 201t56 266q0 82 -14 147.5t-52 108.5t-93.5 65.5t-108.5 22.5q-137 0 -214 -67.5t-77 -121.5q0 -18 10.5 -28.5t40.5 -10.5q10 0 28.5 2.5t22.5 2.5q49 0 89.5 -40t40.5 -96q0 -59 -45.5 -104t-110.5 -45 q-86 0 -137.5 66.5t-51.5 156.5q0 143 123 247.5t303 104.5q121 0 223.5 -30.5t177.5 -92t114.5 -137t39.5 -157.5q0 -188 -116.5 -314.5t-278.5 -196t-219 -99t-106 -87.5h649l33 195h61l-12 -88q-10 -68 -20.5 -157t-10.5 -152l-4 -66h-977z" />
<glyph unicode="3" d="M74 276q0 88 49 137.5t125 49.5q63 0 105 -46t42 -114q0 -63 -47 -106t-110 -43q-20 0 -21 -15q0 -29 69.5 -60.5t170.5 -31.5q121 0 174 23.5t85 69.5t43 103.5t11 118.5q0 100 -9 165t-44 110t-95.5 67.5t-185.5 22.5h-53h-119v61h113q92 0 171 15.5t124 58.5 q37 35 47 84t10 117q0 113 -51 185.5t-160 72.5q-106 0 -169.5 -36t-63.5 -58q0 -12 9 -13.5t19 0.5q59 0 97.5 -44t38.5 -95q0 -70 -41 -112.5t-103 -42.5q-76 0 -118 54t-42 124q0 104 90.5 194t284.5 90q180 0 338 -78.5t158 -244.5q0 -145 -79 -196.5t-204 -92.5 q180 -47 263 -136t83 -237q0 -213 -183 -314t-384 -101q-117 0 -206 25.5t-139 71.5t-71.5 97t-21.5 100z" />
<glyph unicode="4" d="M45 369v86l725 911h143v-782h150v-215h-150v-303h170v-66h-618v66h176v303h-596zM238 584h411v512z" />
<glyph unicode="5" d="M59 289q0 78 46.5 130t117.5 52q49 0 93 -37t44 -110q0 -57 -40.5 -100.5t-88.5 -43.5q-29 0 -28 -14q0 -47 76.5 -83t171.5 -36q90 0 140 19.5t90 67.5t60.5 114.5t20.5 150.5q0 115 -15.5 184.5t-56.5 124t-102.5 82t-128.5 27.5q-135 0 -182.5 -57.5t-69.5 -114.5 l-57 19q25 72 50 177t25 253q0 135 -10 185t-18 73q39 10 97 19t157 9q119 0 215 -19.5t194 -39.5q45 0 57.5 20.5t16.5 40.5l49 -24q0 -164 -96 -218.5t-228 -54.5q-57 0 -154 15.5t-200 32.5q-10 0 -16 -9q0 -115 -8.5 -181t-16.5 -112q35 20 91.5 40t148.5 20 q233 0 402 -119t169 -311q0 -29 -13 -141.5t-189.5 -226t-376.5 -113.5q-215 0 -326 95t-111 214z" />
<glyph unicode="6" d="M90 502q0 317 162 503.5t327.5 281.5t419.5 95l-2 -59q-291 0 -439 -164t-148 -393q16 20 65 62t197 42q174 0 289.5 -119.5t115.5 -295.5q0 -197 -139 -334t-336 -137q-221 0 -366.5 147.5t-145.5 370.5zM391 416q0 -80 13.5 -178.5t52.5 -131.5q47 -41 63.5 -50 t79.5 -9q41 0 81 15.5t62.5 53.5t31.5 101.5t9 126.5q0 25 -1 44.5t-1 31.5q0 115 -7 179.5t-32.5 111.5t-55.5 61t-87 14q-39 0 -82 -22.5t-73.5 -60t-42 -104t-11.5 -183.5z" />
<glyph unicode="7" d="M100 944q25 100 47.5 217t22.5 205h948v-80l-82 -133q-193 -313 -276.5 -504.5t-108 -255t-24.5 -86.5q0 -39 41 -39q53 0 89 -42t36 -99q0 -55 -40 -99t-98 -44q-82 0 -119.5 53t-37.5 123q0 63 11 99t50 122l107 235q55 121 94 236t63 231h-624l-33 -139h-66z" />
<glyph unicode="8" d="M76 356q0 150 105.5 239t269.5 134q-129 37 -225.5 111.5t-96.5 187.5q0 96 50 175t136 122q57 31 123 44t137 13q92 0 168 -19.5t177.5 -90t101.5 -207.5q0 -129 -93 -210t-229 -120q162 -41 269.5 -132t107.5 -241q0 -178 -157.5 -278t-344.5 -100q-193 0 -346 95 t-153 277zM373 356q0 -156 32.5 -233.5t167.5 -77.5t173 99.5t38 211.5q0 186 -47 235.5t-164 104.5q-111 -49 -155.5 -99.5t-44.5 -240.5zM408 1042q0 -154 24.5 -196.5t136.5 -81.5q111 35 142.5 92t31.5 182q0 139 -26.5 210t-141.5 71q-137 0 -152 -87.5t-15 -189.5z " />
<glyph unicode="9" d="M76 911q0 197 139 334t336 137q221 0 366.5 -147.5t145.5 -370.5q0 -242 -105.5 -416t-244 -275t-227.5 -132t-165.5 -44t-162.5 -13v61q76 0 149.5 15.5t185 57.5t182 202.5t70.5 279.5q-59 -35 -131.5 -69.5t-132.5 -34.5q-172 0 -288.5 120.5t-116.5 294.5zM373 946 q0 -199 29.5 -282.5t150.5 -83.5q117 0 163 106.5t46 263.5q0 94 -4 131t-21 99q-33 141 -184 141q-143 0 -159.5 -94t-18.5 -139.5t-2 -110.5v-31z" />
<glyph unicode=":" horiz-adv-x="579" d="M123 150q0 68 49 116.5t119 48.5q68 0 117 -49t49 -116q0 -68 -48.5 -118t-117.5 -50q-70 0 -119 49t-49 119zM123 709q0 70 49 119t119 49q68 0 117 -49.5t49 -118.5q0 -66 -49.5 -117t-116.5 -51q-70 0 -119 49t-49 119z" />
<glyph unicode=";" horiz-adv-x="579" d="M115 147q0 66 48 116t113 50q88 0 138.5 -62.5t50.5 -160.5q0 -135 -74 -256t-246 -149l-8 61q127 23 184.5 107t57.5 159q-16 -12 -41 -22t-66 -10q-59 0 -108 50.5t-49 116.5zM125 709q0 70 49 119t119 49q68 0 117 -49.5t49 -118.5q0 -68 -49.5 -117t-116.5 -49 q-68 0 -118 48t-50 118z" />
<glyph unicode="&#x3c;" horiz-adv-x="1024" d="M68 635v76l886 393v-84l-796 -348l796 -350v-82z" />
<glyph unicode="=" d="M94 522v90h965v-90h-965zM94 756v92h965v-92h-965z" />
<glyph unicode="&#x3e;" horiz-adv-x="1024" d="M68 240v84l796 348l-796 350v82l886 -395v-76z" />
<glyph unicode="?" horiz-adv-x="897" d="M92 1147q0 127 117 190.5t250 63.5q168 0 277.5 -95.5t109.5 -261.5q0 -115 -54.5 -217t-148.5 -159l-194 -119q-43 -27 -62.5 -75t-19.5 -103h-64v344q0 43 18.5 71.5t59.5 61.5q55 35 117.5 78t102.5 89t54.5 75.5t14.5 72.5q0 80 -77 127t-169 47q-45 0 -109.5 -19.5 t-64.5 -57.5q0 -12 10 -12.5t25 1.5q49 0 95 -44t46 -97q0 -63 -45 -108.5t-109 -45.5q-80 0 -130 52.5t-50 140.5zM188 137q0 66 45.5 111t110.5 45q61 0 108.5 -45t47.5 -111q0 -63 -46 -109t-110 -46q-66 0 -111 44.5t-45 110.5z" />
<glyph unicode="@" horiz-adv-x="1536" d="M90 686q0 299 207 516t504 217q264 0 454.5 -168t190.5 -428q0 -246 -145.5 -400.5t-270.5 -154.5q-96 0 -127 35t-45 72q-35 -37 -87 -75t-140 -38q-160 0 -215.5 108.5t-55.5 252.5q0 84 55.5 189.5t132.5 173t153.5 103t160.5 35.5q70 0 100.5 -29.5t51.5 -62.5l16 47 h199l-182 -633q-4 -16 -7.5 -26t-3.5 -19q0 -53 35 -53q63 0 182 140.5t119 328.5q0 231 -167 380t-406 149q-264 0 -449.5 -194t-185.5 -460q0 -287 185.5 -468t426.5 -181q246 0 346.5 84t155.5 172h90q-25 -43 -47 -84q-70 -96 -205 -170t-344 -74q-283 0 -482.5 208 t-199.5 507zM541 469q0 -59 21.5 -98t76.5 -39q86 0 153.5 76.5t94.5 175.5l86 299q2 4 2 20q0 53 -24.5 100.5t-86.5 47.5q-84 0 -140 -59.5t-92 -150.5t-63.5 -193.5t-27.5 -178.5z" />
<glyph unicode="A" horiz-adv-x="1269" d="M-27 0v66h58q59 0 93 37.5t58 101.5l426 1196h47l508 -1335h133v-66h-630v66h147l-121 358h-356l-78 -215q-8 -23 -14 -47.5t-6 -44.5q0 -29 20.5 -40t81.5 -11h45v-66h-412zM360 492h312l-148 464z" />
<glyph unicode="B" horiz-adv-x="1388" d="M76 0v66h155v1234h-155v66h545q176 0 265 -17.5t169 -55.5t130 -104.5t50 -154.5q0 -119 -82 -188.5t-213 -108.5q86 -20 139.5 -39.5t105.5 -59.5t87 -109.5t35 -145.5q0 -94 -47.5 -172t-134.5 -126t-198.5 -66.5t-244.5 -18.5h-606zM549 66h90q92 0 161.5 23.5 t102.5 69.5t46.5 97t13.5 135q0 76 -22.5 136.5t-69 99.5t-104.5 49t-134 10h-84v-620zM549 750h88q70 0 126 16t95 56t49.5 85t10.5 117q0 145 -72 210.5t-219 65.5h-78v-550z" />
<glyph unicode="C" horiz-adv-x="1345" d="M82 696q0 82 28.5 177.5t101.5 215t219.5 216t330.5 96.5q86 0 180 -31l188 -70q27 0 40.5 18.5t21.5 39.5h51l4 -473h-63q0 109 -126 280.5t-302 171.5q-76 0 -141.5 -40t-95.5 -104.5t-47 -139t-26 -146.5q0 -35 -6 -110.5t-6 -114.5q0 -164 13.5 -272.5t51.5 -200.5 t100.5 -134t141.5 -42q211 0 334 177t123 290h57v-500l-53 -2q-10 29 -24.5 55.5t-49.5 26.5q-82 -43 -174 -77t-198 -34q-143 0 -276.5 58.5t-223.5 162t-132 234.5t-42 272z" />
<glyph unicode="D" horiz-adv-x="1585" d="M76 0v66h155v1234h-155v66h665q133 0 251 -28.5t218 -94.5q293 -197 293 -549q0 -150 -56 -291t-162.5 -239t-243 -131t-316.5 -33h-649zM557 66h135q117 0 209 26.5t144.5 96t82 182t29.5 321.5q0 127 -10 228.5t-51 195.5t-133.5 139t-223.5 45h-182v-1234z" />
<glyph unicode="E" horiz-adv-x="1357" d="M76 0v66h155v1234h-155v66h1151l6 -410h-64q0 68 -14 121t-56 107.5t-111.5 85t-147.5 30.5h-285v-548h72h30q82 0 131.5 11t79 50t38.5 92t9 115h66v-629h-63q0 61 -4.5 90t-27 81t-92 87t-165.5 35h-74v-618h270q135 0 204 24.5t118 86t59.5 140t12.5 142.5h65v-459 h-1208z" />
<glyph unicode="F" horiz-adv-x="1271" d="M76 0v66h155v1234h-155v66h1165l4 -403h-63v24q0 76 -41 148.5t-118 118.5t-192 46h-274v-561h117q66 0 115 16.5t81.5 55.5t40 100.5t7.5 108.5h63v-629h-63q2 16 2 27q0 49 -15.5 106.5t-51.5 93t-82 47t-101 11.5h-113v-610h168v-66h-649z" />
<glyph unicode="G" horiz-adv-x="1431" d="M82 686q0 147 51 281.5t147.5 231.5t215 149.5t243.5 52.5q102 0 201 -33l180 -78q43 0 50.5 24.5t7.5 51.5h67v-475h-65q0 135 -115 288.5t-299 153.5q-94 0 -169 -48t-102.5 -127t-46 -231.5t-18.5 -303.5q0 -184 8 -273.5t53.5 -166.5t117 -112.5t155.5 -35.5 q111 0 169 50t58 151v182h-143v65h569v-65h-112v-277q-76 -57 -192 -114.5t-325 -57.5q-152 0 -289 54.5t-233 159t-140 231.5t-44 272z" />
<glyph unicode="H" horiz-adv-x="1634" d="M76 0v66h155v1234h-155v66h639v-66h-156v-546h518v546h-155v66h637v-66h-156v-1234h156v-66h-637v66h155v620h-518v-620h156v-66h-639z" />
<glyph unicode="I" horiz-adv-x="786" d="M76 0v66h157v1234h-157v66h635v-66h-156v-1234h156v-66h-635z" />
<glyph unicode="J" horiz-adv-x="897" d="M0 35q0 63 40 110.5t105 47.5q53 0 91 -38t38 -94q0 -61 -32 -96q-39 -20 -76 -43q0 -12 36 -24.5t95 -12.5q66 0 101.5 38t35.5 106q0 96 -32.5 178t-32.5 199v894h-183v66h662v-66h-156v-1030q0 -98 -9 -146t-32 -91q-47 -100 -144 -154.5t-214 -54.5q-113 0 -203 53.5 t-90 157.5z" />
<glyph unicode="K" horiz-adv-x="1468" d="M76 0v66h155v1234h-155v66h618v-66h-143v-536l377 371l63 63q51 57 51 80q0 16 -16 19t-43 3h-80v66h524v-66h-36q-100 0 -185.5 -38.5t-165.5 -116.5l-262 -254l559 -825h146v-66h-649v66h118l-387 620l-14 -12v-608h143v-66h-618z" />
<glyph unicode="L" horiz-adv-x="1316" d="M76 0v66h155v1234h-155v66h647v-66h-166v-1234h231q111 0 191 21.5t137.5 77.5t77.5 129t20 155v36h66v-485h-1204z" />
<glyph unicode="M" horiz-adv-x="1828" d="M51 0v63h41q37 0 63.5 11.5t40 36t17.5 64.5t4 81v59v985h-156v66h508l334 -948l357 948h493v-66h-158v-1234h158v-66h-637v66h158v1130l-451 -1196h-88l-444 1223v-910q0 -23 -1 -42t-1 -35q0 -35 3 -69t21.5 -62.5t45 -35t75.5 -6.5l33 3v-66h-416z" />
<glyph unicode="N" horiz-adv-x="1523" d="M53 0v68h45q80 0 100.5 41t20.5 131v958l-76 102h-90v66h426l758 -895v686q0 51 -4 72.5t-22.5 42t-36 24.5t-39.5 4h-25h-39v66h385v-66h-35q-31 0 -53 -7t-35.5 -28.5t-19.5 -47t-6 -62.5v-1180h-80l-936 1135v-870q0 -96 17.5 -134t105.5 -38h45v-68h-406z" />
<glyph unicode="O" horiz-adv-x="1464" d="M90 686q0 313 192.5 514t458.5 201q281 0 465.5 -212t184.5 -499q0 -131 -36 -243.5t-122 -222t-217 -181.5t-275 -72q-156 0 -293 81t-217.5 197t-110.5 214t-30 223zM446 729q0 -147 3.5 -203.5t15.5 -177.5t61 -216t215 -95t215.5 86t60.5 189.5t17 207t6 170.5 l-12 324q0 154 -68.5 237.5t-218.5 83.5q-141 0 -213.5 -85t-72.5 -246z" />
<glyph unicode="P" horiz-adv-x="1370" d="M76 0v68h155v1232h-155v66h315l434 12q195 0 350.5 -90t155.5 -272q0 -168 -134 -291t-411 -123l-233 8v-542h188v-68h-665zM553 674l104 -8q59 0 126 12t118 59q51 43 69.5 110.5t18.5 151.5q0 106 -17.5 159.5t-56 94.5t-98 51.5t-149.5 10.5q-35 0 -60.5 -1t-54.5 -5 v-635z" />
<glyph unicode="Q" horiz-adv-x="1464" d="M92 686q0 287 184.5 501t468.5 214q279 0 464.5 -214t185.5 -499q0 -195 -73 -333t-154 -209.5t-151.5 -102.5t-127.5 -53v-164q0 -72 32.5 -119t114.5 -47q57 0 99.5 16.5t74.5 32.5l27 -59q-43 -20 -111.5 -42t-185.5 -22q-104 0 -171 22.5t-105.5 61.5t-52 75 t-13.5 77l-2 168q-51 16 -114.5 44.5t-167 122t-163 223.5t-59.5 306zM451 696q0 -72 7 -199.5t20.5 -225t72.5 -167t194 -69.5q125 0 194 68.5t78 157.5t17 239.5t8 189.5l-12 324q0 154 -67.5 238.5t-217.5 84.5q-119 0 -193.5 -65.5t-85.5 -176t-13 -195.5t-2 -204z" />
<glyph unicode="R" horiz-adv-x="1492" d="M76 0v68h155v1232h-155v66h327l299 10q186 0 282.5 -22.5t167.5 -66.5t112 -110.5t41 -140.5q0 -131 -100.5 -208.5t-246.5 -106.5q160 -39 244 -118t84 -318q0 -113 16.5 -163t69.5 -50q16 0 34.5 9t37.5 21l29 -49q-35 -27 -93.5 -53.5t-162.5 -26.5q-111 0 -189 83 t-78 370q0 168 -90 213t-196 45h-113v-616h164v-68h-639zM551 750h129q115 0 200 53t85 246q0 158 -64.5 213t-222.5 55q-51 0 -81 -3t-46 -7v-557z" />
<glyph unicode="S" horiz-adv-x="1216" d="M102 532h64q12 -57 35.5 -128.5t86 -159.5t157 -149.5t196.5 -61.5q119 0 201 66.5t82 183.5q0 113 -74 159.5t-209 81.5l-248 66q-123 33 -207 129t-84 270q0 176 128 294t315 118q76 0 153.5 -21.5t124.5 -45t71 -34t38 -10.5q37 0 42 24.5t5 51.5h63v-459h-65 q-12 57 -33.5 127t-106.5 184.5t-272 114.5q-104 0 -184 -58t-80 -153q0 -88 50 -131t112 -57l323 -72q162 -37 253 -145.5t91 -282.5q0 -203 -134 -335t-341 -132q-106 0 -221 37q-106 43 -211 86q-23 0 -33 -29.5t-18 -60.5h-59z" />
<glyph unicode="T" horiz-adv-x="1333" d="M20 920l15 446h1270l8 -446h-64q0 156 -86 268t-254 112h-80v-1234h172v-66h-667v66h172v1234h-45q-176 0 -274.5 -104t-98.5 -276h-68z" />
<glyph unicode="U" horiz-adv-x="1513" d="M49 1300v66h643v-66h-155v-866q0 -168 75.5 -268t245.5 -100q180 0 281.5 101t101.5 318v650q0 84 -20.5 126t-114.5 42h-49v63h397v-66h-27q-63 0 -87.5 -40.5t-24.5 -110.5v-635q0 -303 -139.5 -429t-391.5 -126q-264 0 -421.5 128t-157.5 380v833h-156z" />
<glyph unicode="V" horiz-adv-x="1224" d="M-35 1300v66h656v-66h-185l328 -911l231 649q25 74 38.5 118t13.5 79q0 29 -20.5 47t-57.5 18h-64v66h381v-66h-29q-49 0 -81.5 -37.5t-53.5 -97.5l-444 -1206h-86l-486 1341h-141z" />
<glyph unicode="W" horiz-adv-x="1892" d="M-35 1300v66h572v-66h-111l311 -909l197 539l-139 370h-136v66h635v-66h-176l320 -913l262 752q6 18 13 50t7 48q0 35 -23.5 49t-66.5 14h-51v66h373v-66h-21q-61 0 -94 -47t-55 -110l-424 -1190h-68l-321 878l-318 -878h-67l-488 1347h-131z" />
<glyph unicode="X" horiz-adv-x="1335" d="M-33 0v66h27q70 0 126 37.5t163 195.5l239 356l-387 645h-143v66h631v-66h-129l217 -366l145 219q18 31 35.5 64.5t17.5 52.5q0 31 -53 30h-51v66h383v-66h-23q-70 0 -121 -36.5t-98 -104.5l-194 -291l485 -802h133v-66h-651v66h143l-305 526l-184 -291l-74 -119 q-27 -51 -27 -76q0 -18 18.5 -29t59.5 -11h78v-66h-461z" />
<glyph unicode="Y" horiz-adv-x="1226" d="M-41 1300v66h641v-66h-145l295 -692l227 525q10 25 21.5 53t11.5 49q0 66 -95 65h-45v66h398v-66h-27q-72 0 -107.5 -38.5t-74.5 -126.5l-254 -578v-491h158v-66h-639v66h155v413l-368 821h-152z" />
<glyph unicode="Z" horiz-adv-x="1318" d="M49 0v49l815 1251h-311q-178 0 -274.5 -109.5t-96.5 -270.5h-67l28 446h1112v-45l-815 -1255h310q258 0 357 124.5t99 294.5h66l-25 -485h-1198z" />
<glyph unicode="[" horiz-adv-x="557" d="M109 -500v1907h391v-94h-287v-1719h287v-94h-391z" />
<glyph unicode="\" horiz-adv-x="794" d="M137 1407h113l555 -1907h-113z" />
<glyph unicode="]" horiz-adv-x="557" d="M57 -406h287v1719h-287v94h392v-1907h-392v94z" />
<glyph unicode="^" horiz-adv-x="1024" d="M76 782l381 584h108l383 -584h-96l-342 518l-340 -518h-94z" />
<glyph unicode="_" horiz-adv-x="1024" d="M-20 -143h1064v-115h-1064v115z" />
<glyph unicode="`" horiz-adv-x="1024" d="M240 1315q0 35 29.5 56.5t68.5 21.5q61 0 98 -43t70 -117l117 -244h-58l-233 197q-43 35 -67.5 64.5t-24.5 64.5z" />
<glyph unicode="a" horiz-adv-x="1132" d="M68 240q0 150 143 214t315 64l154 8l-2 121q0 129 -39 161t-131 32q-80 0 -137.5 -11.5t-57.5 -37.5q23 -8 58 -31t35 -84q0 -49 -37 -86t-86 -37q-57 0 -94 37t-37 96q0 84 93 147.5t277 63.5q106 0 190.5 -21.5t163 -71.5t78.5 -212v-408q0 -35 6.5 -61.5t28.5 -26.5 q29 0 45.5 41t16.5 66l55 -10q0 -68 -55.5 -139.5t-167.5 -71.5q-68 0 -109 23.5t-78 82.5q-66 -59 -125 -82.5t-147 -23.5q-145 0 -250.5 61.5t-105.5 196.5zM356 262q0 -94 31 -146.5t117 -52.5q88 0 132 52.5t44 142.5v209q-61 0 -129 -4t-116 -24.5t-63.5 -63.5 t-15.5 -113z" />
<glyph unicode="b" horiz-adv-x="1255" d="M57 0v61h121v1244h-121v61h207h31q63 0 97 10t69 54v-650q37 39 93 78t157 39q199 0 335 -134t136 -331q0 -84 -34 -160.5t-128 -181t-297 -104.5q-127 0 -180.5 41t-81.5 84v-134q-33 8 -76 15.5t-82 7.5h-246zM461 326q0 -113 61.5 -192t163.5 -79q113 0 149.5 74 t36.5 160v268q0 106 -33.5 188t-150.5 82q-98 0 -162.5 -76.5t-64.5 -179.5v-245z" />
<glyph unicode="c" horiz-adv-x="1005" d="M49 432q0 195 154.5 330t353.5 135q74 0 133.5 -11.5t114.5 -39t92 -76.5t37 -104q0 -61 -41 -104.5t-102 -43.5q-63 0 -106.5 41t-43.5 105q0 49 23 79l51 52q0 23 -52.5 34t-89.5 11q-61 0 -108 -16.5t-69.5 -58.5t-28 -126t-5.5 -104v-70q0 -129 4.5 -204t24 -125 t68.5 -70.5t106 -20.5q78 0 141.5 23.5t108.5 76t58.5 97.5t17.5 67h61q-2 -27 -16 -86t-70.5 -122.5t-138.5 -93.5t-168 -30q-205 0 -357.5 127t-152.5 328z" />
<glyph unicode="d" horiz-adv-x="1243" d="M76 428q0 197 132 333t329 136q104 0 157.5 -38t85.5 -77v521h-133v63h223h33q63 0 93 9t69 55v-1369h121v-61h-244q-59 0 -96 -6t-66 -17v127q-31 -41 -85 -80.5t-169 -39.5q-207 0 -328.5 145t-121.5 299zM385 315q0 -72 5 -109.5t30.5 -78.5t61.5 -56.5t85 -15.5 t94.5 24.5t70 58.5t36.5 76t12 112v241q0 66 -14 112t-55 87q-31 29 -67 44t-77 15q-100 0 -141 -71.5t-41 -190.5v-248z" />
<glyph unicode="e" horiz-adv-x="1032" d="M49 430q0 197 133 332t332 135q174 0 301 -133t127 -303h-584q0 -102 3.5 -143.5t13.5 -113t61 -112.5t123 -41q170 0 235.5 96.5t98.5 194.5h63q-12 -47 -24 -92q-41 -106 -140.5 -188t-275.5 -82q-199 0 -333 125.5t-134 324.5zM360 526h269l-4 160q0 74 -25 113 t-94 39q-76 0 -110 -36t-34 -126z" />
<glyph unicode="f" horiz-adv-x="675" d="M72 0v61h121v748h-121v61h121v27q0 125 23.5 218t80.5 159.5t113.5 94.5t126.5 28q86 0 150.5 -49.5t64.5 -133.5q0 -59 -36 -97t-95 -38q-51 0 -88 33t-37 86q0 51 30.5 87t65.5 36h14q-6 10 -21.5 15t-41.5 5q-61 0 -92 -38.5t-31 -104.5q0 -27 27.5 -128t27.5 -200 h127v-61h-127v-748h127v-61h-530z" />
<glyph unicode="g" horiz-adv-x="1034" d="M43 -229q0 70 47 111.5t96 70.5q-20 12 -62 50t-42 155q0 82 44 133t126 76q-70 45 -103.5 98t-33.5 133q0 139 118.5 218t266.5 79q90 0 148.5 -22.5t101.5 -49.5q31 29 68.5 57.5t84.5 28.5q78 0 121 -30.5t43 -96.5q0 -39 -30.5 -63.5t-69.5 -24.5q-41 0 -71 28 t-30 69q0 12 1 22t5 23q-37 0 -52 -18.5t-23 -33.5q25 -31 48 -75.5t23 -120.5q0 -133 -123.5 -208t-265.5 -75q-23 0 -66.5 6t-88.5 15q-43 0 -92.5 -23.5t-49.5 -58.5q0 -33 42 -40t98 -7l292 6q197 0 262.5 -75t65.5 -183q0 -188 -124 -318.5t-359 -130.5q-150 0 -283 71 t-133 204zM186 -221q0 -106 87 -161.5t202 -55.5q156 0 264.5 79.5t108.5 184.5q0 63 -59.5 85.5t-137.5 22.5q-45 -2 -55 -2l-197 -2h-139q-25 -27 -49.5 -61.5t-24.5 -89.5zM362 504q0 -78 31 -108.5t96 -30.5q78 0 102.5 33.5t24.5 113.5v186q0 72 -21.5 107t-105.5 35 q-80 0 -101 -40t-21 -91z" />
<glyph unicode="h" horiz-adv-x="1265" d="M59 0v61h121v1244h-121v61h207h33q63 0 93 10t71 54v-682q45 49 119.5 98t222.5 49q133 0 214 -75t81 -210v-549h121v-61h-521v61h115v637q0 51 -32.5 74t-88.5 23q-90 0 -160.5 -69t-70.5 -187v-478h112v-61h-516z" />
<glyph unicode="i" horiz-adv-x="655" d="M70 0v61h120v748h-120v61h213h30q61 0 93 8.5t71 43.5v-861h121v-61h-528zM158 1225q0 68 48 118t118 50t119 -49.5t49 -118.5q0 -68 -49.5 -117t-118.5 -49q-68 0 -117 49t-49 117z" />
<glyph unicode="j" horiz-adv-x="598" d="M57 809v61h213q74 0 115 8.5t82 43.5v-1090q0 -152 -52.5 -242t-193.5 -90q-66 0 -109.5 39t-43.5 107q0 47 32.5 79.5t81.5 32.5t84 -30.5t35 -81.5q0 -29 -8 -47.5t-14 -28.5q29 8 56 27.5t27 83.5q0 49 -92 163.5t-92 259.5v705h-121zM145 1229q0 66 49.5 115 t116.5 49q68 0 117 -47.5t49 -116.5q0 -68 -49 -117t-117 -49q-70 0 -118 48t-48 118z" />
<glyph unicode="k" horiz-adv-x="1140" d="M57 0v61h121v1244h-121v61h205h35q57 0 88 7t45 21.5t27 35.5v-973l258 219q33 25 48 45t15 45q0 27 -13 35t-40 8h-80v61h465v-61h-47q-53 0 -112.5 -33t-129.5 -92l-129 -113l342 -510h121v-61h-541v61h76l-192 345l-41 -35v-310h84v-61h-484z" />
<glyph unicode="l" horiz-adv-x="641" d="M57 0v61h121v1244h-121v61h211h33q63 0 93 10t71 54v-1369h119v-61h-527z" />
<glyph unicode="m" horiz-adv-x="1816" d="M70 0v61h120v748h-120v61h211h26q63 0 98 8.5t70 43.5v-191q45 55 112.5 110.5t182.5 55.5q143 0 194.5 -59.5t77.5 -122.5q41 61 109 121.5t197 60.5q143 0 216.5 -78t73.5 -205v-553h121v-61h-508v61h101v621q0 55 -18.5 86t-71.5 31q-88 0 -148.5 -84t-60.5 -199v-455 h100v-61h-483v61h100v621q0 49 -20.5 82t-67.5 33q-86 0 -146.5 -82t-60.5 -174v-480h100v-61h-505z" />
<glyph unicode="n" horiz-adv-x="1288" d="M72 0v61h121v748h-121v61h213h28q61 0 95 8.5t71 43.5v-183q41 53 112 105.5t214 52.5q139 0 222 -74.5t83 -199.5v-562h121v-61h-529v61h121v629q0 55 -31.5 83t-89.5 28q-92 0 -157.5 -80t-65.5 -176v-484h121v-61h-528z" />
<glyph unicode="o" horiz-adv-x="1136" d="M76 434q0 195 146.5 329t344.5 134q197 0 345.5 -130t148.5 -325t-146.5 -328.5t-341.5 -133.5q-207 0 -352 133t-145 321zM397 250q0 -98 39 -154.5t135 -56.5q100 0 136 54t36 159v373q0 104 -36.5 158.5t-135.5 54.5q-94 0 -134 -55.5t-40 -157.5v-375z" />
<glyph unicode="p" horiz-adv-x="1247" d="M57 -438h121v1247h-121v61h209q63 0 92 4.5t64 24.5l41 23v-146q27 41 82 81t186 40q180 0 310 -138t130 -321q0 -186 -129 -321t-325 -135q-141 0 -189.5 46t-64.5 72v-538h131v-62h-537v62zM463 375q0 -96 9 -152.5t47 -94.5t81 -57.5t84 -19.5q115 0 147.5 90 t32.5 234v172q0 125 -33.5 202.5t-140.5 77.5q-82 0 -135 -45t-72.5 -96t-19.5 -166v-145z" />
<glyph unicode="q" horiz-adv-x="1247" d="M76 438q0 182 130 320.5t310 138.5q131 0 185.5 -39t82.5 -82v146l41 -23q29 -18 67 -23.5t89 -5.5h209v-61h-121v-1247h121v-62h-537v62h131v538q-29 -41 -82 -79.5t-172 -38.5q-199 0 -326.5 135t-127.5 321zM385 375q0 -145 30.5 -234.5t147.5 -89.5q43 0 85 18.5 t78 56.5t47 98.5t11 150.5v145q0 92 -13 149.5t-64 100.5q-68 57 -150 57q-104 0 -138 -78.5t-34 -201.5v-172z" />
<glyph unicode="r" horiz-adv-x="858" d="M55 0v61h121v748h-121v61h211h29q61 0 96 8.5t70 43.5v-162q33 45 83 91t136 46q74 0 119 -43t45 -119q0 -66 -43 -113t-105 -47q-59 0 -104 41t-45 99q0 25 5 46t9 30q-33 -29 -66.5 -77t-33.5 -145v-508h153v-61h-559z" />
<glyph unicode="s" horiz-adv-x="878" d="M78 582q0 137 97 226t237 89q55 0 112.5 -13.5t116.5 -27.5q29 0 37 10.5t12 24.5h47l17 -295h-54q-33 104 -113.5 173t-187.5 69q-70 0 -130 -34t-60 -89q0 -61 44 -83t112 -28l77 -8q170 -18 271.5 -71.5t101.5 -198.5q0 -152 -99.5 -247t-252.5 -95q-70 0 -148.5 21.5 t-93.5 21.5q-43 0 -60.5 -15.5t-27.5 -25.5h-43l-6 344h53q18 -43 45 -93.5t73 -93.5t104.5 -70.5t117.5 -27.5q76 0 134.5 38t58.5 116q0 55 -47.5 73.5t-128.5 26.5l-86 10q-330 40 -330 273z" />
<glyph unicode="t" horiz-adv-x="688" d="M76 807v61h22q115 0 212.5 122t97.5 255v25h53v-402h180v-61h-180v-617q0 -43 10 -73.5t51 -30.5q39 0 61.5 26.5t41.5 57.5l43 -31q-33 -53 -88.5 -105t-167.5 -52q-88 0 -161 58t-73 191v576h-102z" />
<glyph unicode="u" horiz-adv-x="1267" d="M57 809v61h213h31q61 0 95 8.5t69 43.5v-691v-26q0 -61 22.5 -103.5t96.5 -42.5q80 0 150.5 79t70.5 163v508h-121v61h213h31q61 0 95 8.5t69 43.5v-861h120v-61h-407v121q-33 -47 -96.5 -94t-210.5 -47q-150 0 -235 78.5t-85 222.5v528h-121z" />
<glyph unicode="v" horiz-adv-x="972" d="M-43 809v61h561v-61h-119l203 -508l152 350q12 27 17 45.5t5 40.5q0 41 -20.5 56.5t-63.5 15.5h-55v61h379v-61h-27q-57 0 -88 -25.5t-59 -85.5l-328 -723h-68l-364 834h-125z" />
<glyph unicode="w" horiz-adv-x="1468" d="M-45 809v61h491v-61h-92l201 -510l129 293l-96 217h-74v61h508v-61h-117l197 -510l145 326q12 27 21.5 59.5t9.5 63.5q0 29 -18.5 45t-65.5 16h-53v61h370v-61q-59 0 -94 -18.5t-76 -108.5l-323 -711h-66l-237 545l-246 -545h-66l-364 838h-84z" />
<glyph unicode="x" horiz-adv-x="997" d="M-27 0v61h23q70 0 134.5 49.5t107.5 102.5l135 164l-293 432h-107v61h523v-61h-86l145 -223l78 102q14 20 31 41q16 27 16 51q0 16 -17.5 22.5t-37.5 6.5h-45v61h362v-61h-41q-88 0 -170 -102l-137 -172l321 -474h109v-61h-561v61h106l-155 258l-74 -88 q-51 -61 -62.5 -81.5t-11.5 -45.5t21.5 -34t52.5 -9h45v-61h-412z" />
<glyph unicode="y" horiz-adv-x="974" d="M-43 809v61h578v-61h-129l198 -500l162 359q6 12 11 32.5t5 42.5q0 66 -80 66h-61v61h377v-61h-25q-90 0 -141 -113l-225 -495q-43 -102 -70 -174t-37 -117l-10 -43q-14 -66 -30.5 -135.5t-46.5 -119.5t-76 -82t-101 -32q-66 0 -116 44t-50 110q0 59 39 98t100 39 q51 0 93.5 -38t42.5 -87l-3 -33q14 12 30 36t28 73t26.5 123t14.5 98l-383 848h-121z" />
<glyph unicode="z" horiz-adv-x="974" d="M70 0v31l520 778h-103q-145 0 -232 -89t-87 -204v-27h-53v381h811v-32l-520 -777h100q145 0 243.5 92.5t98.5 235.5v25h55v-414h-833z" />
<glyph unicode="{" horiz-adv-x="571" d="M96 422v51q41 12 81 44t40 126v477q0 141 55.5 211t194.5 70h37v-76h-25q-90 0 -125 -48t-35 -140v-490q0 -106 -32.5 -144t-65.5 -57q20 -10 59 -42.5t39 -163.5v-467q0 -98 34 -150.5t122 -52.5h29v-76h-39q-156 0 -202 77t-46 245v432q0 98 -39 129t-82 45z" />
<glyph unicode="|" horiz-adv-x="1024" d="M471 -342v1706h82v-1706h-82z" />
<glyph unicode="}" horiz-adv-x="538" d="M49 -428h25q90 0 124.5 48t34.5 140v490q0 106 33 144t66 57q-20 10 -59.5 42.5t-39.5 163.5v467q0 98 -33.5 150.5t-121.5 52.5h-29v76h39q156 0 202 -77t46 -245v-432q0 -98 39 -129t82 -45v-51q-41 -12 -81 -44t-40 -126v-477q0 -141 -55.5 -211t-194.5 -70h-37v76z " />
<glyph unicode="~" horiz-adv-x="1366" d="M168 672q37 70 96.5 138.5t177.5 68.5q72 0 223.5 -77t217.5 -77q82 0 128 51t79 107l55 -33q-39 -70 -97.5 -137.5t-162.5 -67.5q-96 0 -242.5 76t-216.5 76q-80 0 -126 -53.5t-77 -106.5z" />
<glyph unicode="&#x2dc;" horiz-adv-x="1366" d="M168 672q37 70 96.5 138.5t177.5 68.5q72 0 223.5 -77t217.5 -77q82 0 128 51t79 107l55 -33q-39 -70 -97.5 -137.5t-162.5 -67.5q-96 0 -242.5 76t-216.5 76q-80 0 -126 -53.5t-77 -106.5z" />
<glyph unicode="&#xa1;" horiz-adv-x="641" d="M104 -270q49 72 83 150.5t59 170.5q25 100 36 205.5t11 224.5h55q0 -133 11.5 -235.5t37 -203.5t58 -175t82.5 -137q-88 -35 -138.5 -95.5t-79.5 -156.5q-27 98 -75 156.5t-140 95.5zM152 731q0 66 49 115t116 49q66 0 115 -49t49 -115q0 -68 -47 -117t-117 -49 q-68 0 -116.5 49t-48.5 117z" />
<glyph unicode="&#xa2;" d="M137 705q0 174 131 309t307 153v189h78v-187q141 0 254 -58t113 -175q0 -61 -40 -103t-101 -42q-66 0 -108 41.5t-42 111.5q0 39 23 70q25 27 51 53q0 20 -56.5 32.5t-93.5 12.5q-55 0 -103 -18.5t-66.5 -55.5t-25.5 -94t-7 -123v-84q0 -127 4 -200.5t24.5 -128t64.5 -73 t109 -18.5q266 0 326 265h61q0 -127 -106.5 -229.5t-280.5 -102.5v-232h-78v234q-121 0 -279.5 121t-158.5 332z" />
<glyph unicode="&#xa3;" d="M94 143q0 78 55.5 133.5t147.5 55.5q57 0 81.5 -4t43.5 -11q-6 23 -16.5 54.5t-34.5 72.5l-72 138h-203v82h166q-23 59 -44 130.5t-21 147.5q0 80 21.5 151.5t88 147.5t167.5 110.5t194 34.5q184 0 287.5 -90t103.5 -206q0 -76 -44 -126.5t-112 -50.5q-63 0 -105 42 t-42 104q0 57 40 93t93 36q23 -2 37 -2q25 0 24 8q0 29 -64.5 75t-166.5 46q-125 0 -183.5 -78t-58.5 -182q0 -51 20.5 -124t47.5 -138l43 -129h284v-82h-270q2 -10 3 -24.5t1 -37.5q0 -66 -16.5 -122t-34.5 -101q61 -14 144 -27.5t188 -13.5q98 0 122.5 46t30.5 95h64 q0 -127 -70.5 -266t-259.5 -139q-96 0 -178 38t-143 76q-31 -41 -76 -81.5t-121 -40.5q-63 0 -112.5 46.5t-49.5 112.5zM182 123q2 -29 26.5 -49.5t55.5 -20.5q51 0 78 33t45 66q-20 16 -50 33.5t-71 17.5q-39 0 -61.5 -22.5t-22.5 -57.5z" />
<glyph unicode="&#xa4;" horiz-adv-x="1366" d="M133 1208l66 66l184 -184q137 111 301 110q168 0 299 -108l184 182l66 -66l-184 -184q104 -133 104 -295t-106 -291l186 -188l-64 -66l-188 189q-131 -109 -297 -109q-80 0 -154.5 26.5t-140.5 78.5l-184 -185l-66 66l185 184q-111 131 -111 295q0 82 25.5 153.5 t78.5 141.5zM311 729q0 -152 110.5 -260.5t262.5 -108.5q150 0 260.5 109t110.5 260q0 154 -108.5 264.5t-262.5 110.5t-263.5 -111.5t-109.5 -263.5z" />
<glyph unicode="&#xa5;" d="M41 1300v66h524v-66h-114l235 -659l170 489q10 29 18.5 63t8.5 56q0 31 -24.5 41t-67.5 10h-29v66h350v-66h-22q-63 0 -93 -36.5t-63 -126.5l-109 -308h234v-79h-262l-68 -193v-61h330v-80h-330v-350h137v-66h-547v66h138v350h-351v80h351l-95 254h-256v79h228l-172 471 h-121z" />
<glyph unicode="&#xa6;" horiz-adv-x="1024" d="M471 313h82v-655h-82v655zM471 698v666h82v-666h-82z" />
<glyph unicode="&#xa7;" d="M102 432q0 133 57.5 209t116.5 127q-27 33 -53 84t-26 133q0 188 127 302t305 114q121 0 224 -61.5t103 -165.5q0 -74 -45 -126.5t-110 -52.5q-57 0 -99.5 33t-42.5 86q0 59 34 97t95 38q25 0 45.5 -17.5t43.5 -35.5l8 23q0 45 -81 81.5t-177 36.5q-109 0 -196 -51 t-87 -151q0 -80 56.5 -129.5t140.5 -79.5l196 -72q88 -33 126 -49.5t86 -58t76 -108.5t28 -142q0 -131 -54.5 -207t-109.5 -127q43 -33 85 -86t42 -156q0 -182 -122 -300t-308 -118q-84 0 -145.5 14.5t-114 50.5t-80 82t-27.5 99q0 55 37 106.5t106 51.5q51 0 89 -36t38 -91 q0 -53 -32.5 -86t-87.5 -33q-18 0 -34 7l-32 14l-4 -9q2 -16 57.5 -61t196.5 -45q125 0 220 48t95 148q0 66 -38.5 106t-100 68.5t-137.5 55t-119 41t-106.5 38t-164 102.5t-100.5 259zM215 561q0 -63 46 -105t116 -79q45 -25 77.5 -36t123 -42t149.5 -57.5t100 -48.5 q41 33 80 77.5t39 112.5q0 43 -29.5 73.5t-74.5 53t-103.5 43t-116 40t-145.5 51.5t-153 79q-45 -31 -77 -74t-32 -88z" />
<glyph unicode="&#xa8;" horiz-adv-x="1026" d="M147 1202q0 59 43 102.5t103 43.5q59 0 102 -43t43 -103q0 -59 -43 -102t-102 -43t-102.5 43t-43.5 102zM588 1204q0 59 43 102.5t102 43.5t102.5 -43t43.5 -103q0 -59 -43 -102t-103 -43q-59 0 -102 43t-43 102z" />
<glyph unicode="&#xa9;" horiz-adv-x="1556" d="M61 684q0 297 210 507t507 210t507 -210t210 -507q0 -295 -211 -506t-506 -211t-506 211t-211 506zM123 680q0 -270 192.5 -462.5t462.5 -192.5t463 192.5t193 462.5q0 272 -192.5 464.5t-463.5 192.5q-270 0 -462.5 -192.5t-192.5 -464.5zM385 688q0 51 16.5 104.5 t60.5 128t131 132t200 57.5q49 0 105 -19.5t114 -39.5q20 0 27.5 13t9.5 21h30l4 -284h-39q0 63 -75.5 167.5t-180.5 104.5q-47 0 -84.5 -23.5t-57 -65.5t-29 -81t-15.5 -88l-6 -135q0 -96 8 -162.5t40 -146.5t136 -80q127 0 200 105.5t73 172.5h34v-299l-32 -2 q-4 16 -13.5 32.5t-29.5 16.5q-49 -25 -105.5 -45t-118.5 -20q-184 0 -268 97t-109.5 176t-25.5 163z" />
<glyph unicode="&#xaa;" horiz-adv-x="770" d="M0 608v68h770v-68h-770zM59 973q0 119 119 149.5t256 30.5h10v72q0 66 -19 90t-83 24q-51 0 -84 -6t-33 -18q20 -4 39 -22.5t19 -53.5q0 -33 -25 -55.5t-57 -22.5q-39 0 -63.5 24.5t-24.5 61.5q0 49 55 94t182 45q143 0 210 -52t67 -132v-264q0 -49 18 -49t24.5 21.5 t10.5 43.5l43 -8q-8 -45 -33.5 -91t-111.5 -46q-55 0 -80 20.5t-39 42.5q-12 -12 -47 -37.5t-123 -25.5q-92 0 -161 39t-69 125zM250 987q0 -47 11 -83t77 -36q53 0 79.5 31t26.5 84v125h-16q-43 0 -79 -3t-62 -20q-23 -12 -30 -38.5t-7 -59.5z" />
<glyph unicode="&#xab;" horiz-adv-x="903" d="M96 449l269 346l77 -62l-221 -282l234 -285l-78 -60zM418 449l266 346l78 -64l-217 -280l235 -287l-78 -60z" />
<glyph unicode="&#xac;" horiz-adv-x="1024" d="M68 471v76h886v-547h-82v471h-804z" />
<glyph unicode="&#xad;" horiz-adv-x="583" d="M0 358l80 181h504l-80 -181h-504z" />
<glyph unicode="&#xae;" horiz-adv-x="1556" d="M61 684q0 297 210 507t507 210t507 -210t210 -507q0 -295 -211 -506t-506 -211t-506 211t-211 506zM123 680q0 -270 192.5 -462.5t462.5 -192.5t463 192.5t193 462.5q0 272 -192.5 464.5t-463.5 192.5q-270 0 -462.5 -192.5t-192.5 -464.5zM381 274v41h94v738h-94v39h197 l178 6q88 0 151.5 -10.5t110.5 -38t72.5 -69.5t25.5 -85q0 -78 -61.5 -125t-145.5 -63q98 -25 147.5 -71t49.5 -192q0 -63 5 -95t46 -32q10 0 20.5 5.5t22.5 13.5l17 -29q-20 -16 -54.5 -32.5t-97.5 -16.5q-86 0 -123 69.5t-37 202.5q0 78 -42 116t-130 38h-67v-369h98v-41 h-383zM666 723h77q90 0 130 44t40 136t-38.5 126t-133.5 34q-43 0 -54 -1t-21 -5v-334z" />
<glyph unicode="&#xb0;" horiz-adv-x="774" d="M96 1104q0 123 85 210t208 87q121 0 206 -87t85 -208q0 -119 -86 -205t-205 -86t-206 85t-87 204zM186 1106q0 -80 59.5 -139.5t141.5 -59.5q84 0 143.5 57.5t59.5 143.5q0 82 -59.5 141.5t-143.5 59.5q-82 0 -141.5 -59.5t-59.5 -143.5z" />
<glyph unicode="&#xb1;" d="M94 25v90h965v-90h-965zM94 639v90h438l-2 463h91v-463h438v-90h-438v-463h-91v463h-436z" />
<glyph unicode="&#xb2;" horiz-adv-x="772" d="M31 547q74 117 118 160t152.5 128t143 141t34.5 150q0 88 -38 142.5t-122 54.5q-88 0 -136 -38t-48 -66q0 -16 23 -17q18 2 28 2q41 0 69 -23.5t28 -62.5q0 -41 -31 -67.5t-74 -26.5q-55 0 -91 40t-36 97q0 98 88 156.5t191 58.5q133 0 247.5 -64.5t114.5 -187.5 q0 -117 -76.5 -191.5t-163.5 -110.5t-137 -54q-55 -27 -86 -63h402q0 10 8 49t16 80h52q-10 -72 -20.5 -159t-10.5 -128h-645z" />
<glyph unicode="&#xb3;" horiz-adv-x="772" d="M57 715q0 53 36 84.5t83 31.5q43 0 71.5 -28.5t28.5 -69.5q0 -33 -24.5 -63.5t-54.5 -30.5q-10 0 -20.5 -1t-10.5 -7q0 -14 42 -29.5t132 -15.5q82 0 123 43t41 139q0 135 -49 171t-193 36h-82v51h78q70 0 109 6t75 35q20 16 27.5 46t7.5 67q0 68 -31.5 106.5t-97.5 38.5 q-61 0 -90 -13.5t-47 -29.5q25 -6 62.5 -22.5t37.5 -75.5q0 -43 -28.5 -70t-69.5 -27q-45 0 -76 29t-31 86q0 86 74 130t170 44q117 0 220.5 -47t103.5 -149q0 -90 -53.5 -123t-108.5 -49q70 -18 137.5 -60.5t67.5 -161.5q0 -133 -124 -192t-249 -59q-156 0 -221.5 57 t-65.5 123z" />
<glyph unicode="&#xb4;" horiz-adv-x="1024" d="M403 989l117 244q35 78 70 119t98 41q39 0 68.5 -20.5t29.5 -57.5t-21.5 -62.5t-70.5 -66.5l-233 -197h-58z" />
<glyph unicode="&#xb5;" horiz-adv-x="1267" d="M57 -281h121v1090h-121v61h213h31q61 0 95 8.5t69 43.5v-615v-45q0 -84 22.5 -142.5t92.5 -58.5q78 0 151.5 78t73.5 162v508h-121v61h213h31q61 0 95 8.5t69 43.5v-861h120v-61h-407v121q-33 -47 -96.5 -94t-210.5 -47h-31v-373q-33 33 -72 42t-96 9h-29h-213v61z" />
<glyph unicode="&#xb6;" d="M74 995q0 96 46 182.5t114.5 124t144.5 51t151 13.5h506v-68h-96v-1495h-127v1495h-192v-1495h-129v830q-70 0 -132.5 11t-115.5 42q-82 45 -126 129t-44 180z" />
<glyph unicode="&#xb7;" horiz-adv-x="581" d="M123 444q0 68 49 117t119 49q66 0 117 -49t51 -117q0 -70 -49.5 -119t-118.5 -49q-70 0 -119 49t-49 119z" />
<glyph unicode="&#x2219;" horiz-adv-x="581" d="M123 444q0 68 49 117t119 49q66 0 117 -49t51 -117q0 -70 -49.5 -119t-118.5 -49q-70 0 -119 49t-49 119z" />
<glyph unicode="&#xb8;" horiz-adv-x="1024" d="M317 -403l23 51q27 -10 63.5 -20.5t71.5 -10.5q43 0 77 22.5t34 63.5q0 33 -24.5 51.5t-57.5 18.5q-18 0 -34.5 -5.5t-33.5 -13.5l-26 29l127 217h63l-92 -160l37.5 7.5t36.5 5.5q80 0 134 -37t54 -109q0 -76 -67.5 -117t-147.5 -41q-88 0 -142.5 15t-95.5 33z" />
<glyph unicode="&#xb9;" horiz-adv-x="772" d="M115 1159l110 62q115 63 205 145h109v-768h100v-51h-418v51h111v545q0 45 -25 45q-14 0 -32.5 -9.5t-20.5 -9.5l-115 -59z" />
<glyph unicode="&#xba;" horiz-adv-x="770" d="M0 608v68h770v-68h-770zM70 1094q0 121 95 205.5t218 84.5t219 -81.5t96 -204.5t-93 -206t-218 -83q-127 0 -222 80t-95 205zM281 979q0 -59 23.5 -92t82.5 -33t82 32t23 95v231q0 61 -24 94t-81 33q-55 0 -80.5 -33.5t-25.5 -93.5v-233z" />
<glyph unicode="&#xbb;" horiz-adv-x="903" d="M123 164l237 287l-219 280l78 64l268 -346l-286 -345zM449 166l233 285l-221 282l78 62l268 -346l-279 -343z" />
<glyph unicode="&#xbc;" horiz-adv-x="1767" d="M115 1159l110 62q115 63 205 145h109v-768h100v-51h-418v51h111v545q0 45 -25 45q-14 0 -32.5 -9.5t-20.5 -9.5l-115 -59zM520 0l637 1366h90l-641 -1366h-86zM1032 217v62l469 540h103v-461h94v-141h-94v-164h108v-53h-403v53h112v164h-389zM1165 344h267v305z" />
<glyph unicode="&#xbd;" horiz-adv-x="1767" d="M115 1159l110 62q115 63 205 145h109v-768h100v-51h-418v51h111v545q0 45 -25 45q-14 0 -32.5 -9.5t-20.5 -9.5l-115 -59zM520 0l637 1366h90l-641 -1366h-86zM1024 0q74 117 118 160t152.5 128t143.5 141t35 151q0 88 -38 142t-122 54q-88 0 -136.5 -38t-48.5 -66 q0 -16 23 -17q18 2 29 2q41 0 68.5 -23.5t27.5 -62.5q0 -41 -31 -67.5t-74 -26.5q-55 0 -91 40t-36 97q0 98 88.5 156.5t190.5 58.5q133 0 248 -64.5t115 -186.5q0 -117 -77 -192t-164 -110.5t-136 -54.5q-55 -27 -86 -63h401q0 10 8 49t17 80h51q-10 -72 -20.5 -159 t-10.5 -128h-645z" />
<glyph unicode="&#xbe;" horiz-adv-x="1767" d="M57 715q0 53 36 84.5t83 31.5q43 0 71.5 -28.5t28.5 -69.5q0 -33 -24.5 -63.5t-54.5 -30.5q-10 0 -20.5 -1t-10.5 -7q0 -14 42 -29.5t132 -15.5q82 0 123 43t41 139q0 135 -49 171t-193 36h-82v51h78q70 0 109 6t75 35q20 16 27.5 46t7.5 67q0 68 -31.5 106.5t-97.5 38.5 q-61 0 -90 -13.5t-47 -29.5q25 -6 62.5 -22.5t37.5 -75.5q0 -43 -28.5 -70t-69.5 -27q-45 0 -76 29t-31 86q0 86 74 130t170 44q117 0 220.5 -47t103.5 -149q0 -90 -53.5 -123t-108.5 -49q70 -18 137.5 -60.5t67.5 -161.5q0 -133 -124 -192t-249 -59q-156 0 -221.5 57 t-65.5 123zM528 0l639 1366h90l-641 -1366h-88zM1042 217v62l469 540h103v-461h94v-141h-94v-164h108v-53h-403v53h113v164h-390zM1176 344h266v305z" />
<glyph unicode="&#xbf;" horiz-adv-x="897" d="M66 -166q0 115 54 217.5t148 159.5l195 119q43 27 62.5 75t19.5 103h63v-344q0 -43 -18.5 -72t-59.5 -61q-55 -35 -117.5 -78t-102.5 -89t-54 -76t-14 -73q0 -80 76.5 -127t168.5 -47q45 0 110 19.5t65 58.5q0 10 -5 12q-18 -2 -30 -2q-49 0 -95.5 44t-46.5 98 q0 63 45 108t109 45q80 0 130 -52t50 -140q0 -127 -116.5 -190.5t-249.5 -63.5q-168 0 -277.5 95t-109.5 261zM412 741q0 63 46 109.5t109 46.5q66 0 111 -45t45 -111t-45 -110.5t-111 -44.5q-61 0 -108 44.5t-47 110.5z" />
<glyph unicode="&#xc0;" horiz-adv-x="1269" d="M-27 0v66h58q59 0 93 37.5t58 101.5l426 1196h47l508 -1335h133v-66h-630v66h147l-121 358h-356l-78 -215q-8 -23 -14 -47.5t-6 -44.5q0 -29 20.5 -40t81.5 -11h45v-66h-412zM360 492h312l-148 464zM349 1802q0 35 29.5 56.5t68.5 21.5q61 0 98 -43t70 -117l117 -244h-58 l-233 197q-43 35 -67.5 64.5t-24.5 64.5z" />
<glyph unicode="&#xc1;" horiz-adv-x="1269" d="M-27 0v66h58q59 0 93 37.5t58 101.5l426 1196h47l508 -1335h133v-66h-630v66h147l-121 358h-356l-78 -215q-8 -23 -14 -47.5t-6 -44.5q0 -29 20.5 -40t81.5 -11h45v-66h-412zM360 492h312l-148 464zM538 1476l117 244q35 78 70 119t98 41q39 0 68.5 -20.5t29.5 -57.5 t-21.5 -62.5t-70.5 -66.5l-233 -197h-58z" />
<glyph unicode="&#xc2;" horiz-adv-x="1269" d="M-27 0v66h58q59 0 93 37.5t58 101.5l426 1196h47l508 -1335h133v-66h-630v66h147l-121 358h-356l-78 -215q-8 -23 -14 -47.5t-6 -44.5q0 -29 20.5 -40t81.5 -11h45v-66h-412zM360 492h312l-148 464zM316 1474l225 406h170l223 -406h-63l-250 230l-244 -230h-61z" />
<glyph unicode="&#xc3;" horiz-adv-x="1269" d="M-27 0v66h58q59 0 93 37.5t58 101.5l426 1196h47l508 -1335h133v-66h-630v66h147l-121 358h-356l-78 -215q-8 -23 -14 -47.5t-6 -44.5q0 -29 20.5 -40t81.5 -11h45v-66h-412zM360 492h312l-148 464zM322 1556q18 86 60 172t161 86q53 0 174 -48t154 -48q41 0 57 30.5 t26 65.5h48q-16 -86 -55.5 -173t-151.5 -87q-59 0 -195.5 54.5t-150.5 54.5q-39 0 -54.5 -35t-25.5 -72h-47z" />
<glyph unicode="&#xc4;" horiz-adv-x="1269" d="M-27 0v66h58q59 0 93 37.5t58 101.5l426 1196h47l508 -1335h133v-66h-630v66h147l-121 358h-356l-78 -215q-8 -23 -14 -47.5t-6 -44.5q0 -29 20.5 -40t81.5 -11h45v-66h-412zM360 492h312l-148 464zM270 1687q0 59 43 102.5t103 43.5q59 0 102 -43t43 -103 q0 -59 -43 -102t-102 -43t-102.5 43t-43.5 102zM711 1689q0 59 43 102.5t102 43.5t102.5 -43t43.5 -103q0 -59 -43 -102t-103 -43q-59 0 -102 43t-43 102z" />
<glyph unicode="&#xc5;" horiz-adv-x="1269" d="M-27 0v66h58q59 0 93 37.5t58 101.5l426 1196h47l508 -1335h133v-66h-630v66h147l-121 358h-356l-78 -215q-8 -23 -14 -47.5t-6 -44.5q0 -29 20.5 -40t81.5 -11h45v-66h-412zM360 492h312l-148 464zM424 1726q0 86 61.5 149.5t149.5 63.5t150.5 -62.5t62.5 -150.5 q0 -86 -62.5 -148.5t-150.5 -62.5q-86 0 -148.5 62.5t-62.5 148.5zM512 1726q0 -51 36 -87t87 -36t87 36t36 87t-36 87t-87 36t-87 -36t-36 -87z" />
<glyph unicode="&#xc6;" horiz-adv-x="1802" d="M-55 0v66h22q72 0 117 51t94 143l563 1040h-157v66l1089 2l6 -412h-59q-4 63 -21.5 135t-76 120.5t-123 68.5t-131.5 20h-193v-548h90q102 0 144.5 54t42.5 193v23h63v-633h-63v29q0 113 -46 190.5t-143 77.5h-88v-620h172q219 0 318.5 78.5t99.5 291.5v23h61v-459h-1126 v66h156v358h-404l-28 -51q-35 -61 -76 -140t-41 -116q0 -35 24.5 -43t59.5 -8h55l6 -66h-407zM389 492h367v696z" />
<glyph unicode="&#xc7;" horiz-adv-x="1372" d="M82 694q0 86 27.5 178.5t102.5 215t219 218t331 95.5q84 0 178 -33t190 -68q29 0 42.5 19.5t19.5 38.5h51l4 -473h-63q0 106 -125 279t-303 173q-80 0 -142.5 -38.5t-97.5 -112.5t-58.5 -202t-23.5 -302q0 -164 13.5 -272.5t50.5 -199.5t101.5 -135t141.5 -44 q201 0 329 171t128 296h57v-498h-53q-8 27 -22.5 53.5t-51.5 26.5q-82 -43 -180 -77t-194 -34l-74 -129l37.5 7.5t36.5 5.5q78 0 133 -38t55 -108q0 -74 -68.5 -116t-146.5 -42q-84 0 -140.5 14.5t-97.5 33.5l23 51q29 -10 65.5 -20.5t67.5 -10.5q45 0 79 22.5t34 63.5 q0 33 -24.5 51.5t-57.5 18.5q-18 0 -34.5 -5.5t-33.5 -13.5l-26 29l110 188q-53 4 -174 33t-235.5 157t-157.5 260t-43 273z" />
<glyph unicode="&#xc8;" horiz-adv-x="1357" d="M76 0v66h155v1234h-155v66h1151l6 -410h-64q0 68 -14 121t-56 107.5t-111.5 85t-147.5 30.5h-285v-548h72h30q82 0 131.5 11t79 50t38.5 92t9 115h66v-629h-63q0 61 -4.5 90t-27 81t-92 87t-165.5 35h-74v-618h270q135 0 204 24.5t118 86t59.5 140t12.5 142.5h65v-459 h-1208zM353 1802q0 35 29.5 56.5t68.5 21.5q61 0 98 -43t70 -117l117 -244h-58l-233 197q-43 35 -67.5 64.5t-24.5 64.5z" />
<glyph unicode="&#xc9;" horiz-adv-x="1357" d="M76 0v66h155v1234h-155v66h1151l6 -410h-64q0 68 -14 121t-56 107.5t-111.5 85t-147.5 30.5h-285v-548h72h30q82 0 131.5 11t79 50t38.5 92t9 115h66v-629h-63q0 61 -4.5 90t-27 81t-92 87t-165.5 35h-74v-618h270q135 0 204 24.5t118 86t59.5 140t12.5 142.5h65v-459 h-1208zM583 1476l117 244q35 78 70 119t98 41q39 0 68.5 -20.5t29.5 -57.5t-21.5 -62.5t-70.5 -66.5l-233 -197h-58z" />
<glyph unicode="&#xca;" horiz-adv-x="1357" d="M76 0v66h155v1234h-155v66h1151l6 -410h-64q0 68 -14 121t-56 107.5t-111.5 85t-147.5 30.5h-285v-548h72h30q82 0 131.5 11t79 50t38.5 92t9 115h66v-629h-63q0 61 -4.5 90t-27 81t-92 87t-165.5 35h-74v-618h270q135 0 204 24.5t118 86t59.5 140t12.5 142.5h65v-459 h-1208zM369 1474l225 406h170l223 -406h-63l-250 230l-244 -230h-61z" />
<glyph unicode="&#xcb;" horiz-adv-x="1357" d="M76 0v66h155v1234h-155v66h1151l6 -410h-64q0 68 -14 121t-56 107.5t-111.5 85t-147.5 30.5h-285v-548h72h30q82 0 131.5 11t79 50t38.5 92t9 115h66v-629h-63q0 61 -4.5 90t-27 81t-92 87t-165.5 35h-74v-618h270q135 0 204 24.5t118 86t59.5 140t12.5 142.5h65v-459 h-1208zM313 1687q0 59 43 102.5t103 43.5q59 0 102 -43t43 -103q0 -59 -43 -102t-102 -43t-102.5 43t-43.5 102zM754 1689q0 59 43 102.5t102 43.5t102.5 -43t43.5 -103q0 -59 -43 -102t-103 -43q-59 0 -102 43t-43 102z" />
<glyph unicode="&#xcc;" horiz-adv-x="786" d="M76 0v66h157v1234h-157v66h635v-66h-156v-1234h156v-66h-635zM66 1802q0 35 29.5 56.5t68.5 21.5q61 0 98 -43t70 -117l117 -244h-58l-233 197q-43 35 -67.5 64.5t-24.5 64.5z" />
<glyph unicode="&#xcd;" horiz-adv-x="786" d="M76 0v66h157v1234h-157v66h635v-66h-156v-1234h156v-66h-635zM337 1476l117 244q35 78 70 119t98 41q39 0 68.5 -20.5t29.5 -57.5t-21.5 -62.5t-70.5 -66.5l-233 -197h-58z" />
<glyph unicode="&#xce;" horiz-adv-x="786" d="M76 0v66h157v1234h-157v66h635v-66h-156v-1234h156v-66h-635zM82 1474l225 406h170l223 -406h-63l-250 230l-244 -230h-61z" />
<glyph unicode="&#xcf;" horiz-adv-x="786" d="M76 0v66h157v1234h-157v66h635v-66h-156v-1234h156v-66h-635zM28 1687q0 59 43 102.5t103 43.5q59 0 102 -43t43 -103q0 -59 -43 -102t-102 -43t-102.5 43t-43.5 102zM469 1689q0 59 43 102.5t102 43.5t102.5 -43t43.5 -103q0 -59 -43 -102t-103 -43q-59 0 -102 43 t-43 102z" />
<glyph unicode="&#xd0;" horiz-adv-x="1585" d="M76 0v66h155v604h-133v80h133v550h-155v66h665q133 0 251 -28.5t218 -94.5q293 -197 293 -549q0 -150 -56 -291t-162.5 -239t-243 -131t-316.5 -33h-649zM557 66h135q166 0 241 40.5t131 113.5t74.5 225.5t18.5 246.5q0 127 -10 228.5t-51 195.5t-133.5 139t-223.5 45 h-182v-550h234v-80h-234v-604z" />
<glyph unicode="&#xd1;" horiz-adv-x="1523" d="M53 0v68h45q80 0 100.5 41t20.5 131v958l-76 102h-90v66h426l758 -895v686q0 51 -4 72.5t-22.5 42t-36 24.5t-39.5 4h-25h-39v66h385v-66h-35q-31 0 -53 -7t-35.5 -28.5t-19.5 -47t-6 -62.5v-1180h-80l-936 1135v-870q0 -96 17.5 -134t105.5 -38h45v-68h-406zM389 1556 q18 86 60 172t161 86q53 0 174 -48t154 -48q41 0 57 30.5t26 65.5h48q-16 -86 -55.5 -173t-151.5 -87q-59 0 -195.5 54.5t-150.5 54.5q-39 0 -54.5 -35t-25.5 -72h-47z" />
<glyph unicode="&#xd2;" horiz-adv-x="1464" d="M90 686q0 313 192.5 514t458.5 201q281 0 465.5 -212t184.5 -499q0 -131 -36 -243.5t-122 -222t-217 -181.5t-275 -72q-156 0 -293 81t-217.5 197t-110.5 214t-30 223zM446 729q0 -147 3.5 -203.5t15.5 -177.5t61 -216t215 -95t215.5 86t60.5 189.5t17 207t6 170.5 l-12 324q0 154 -68.5 237.5t-218.5 83.5q-141 0 -213.5 -85t-72.5 -246zM455 1802q0 35 29.5 56.5t68.5 21.5q61 0 98 -43t70 -117l117 -244h-58l-233 197q-43 35 -67.5 64.5t-24.5 64.5z" />
<glyph unicode="&#xd3;" horiz-adv-x="1464" d="M90 686q0 313 192.5 514t458.5 201q281 0 465.5 -212t184.5 -499q0 -131 -36 -243.5t-122 -222t-217 -181.5t-275 -72q-156 0 -293 81t-217.5 197t-110.5 214t-30 223zM446 729q0 -147 3.5 -203.5t15.5 -177.5t61 -216t215 -95t215.5 86t60.5 189.5t17 207t6 170.5 l-12 324q0 154 -68.5 237.5t-218.5 83.5q-141 0 -213.5 -85t-72.5 -246zM645 1476l117 244q35 78 70 119t98 41q39 0 68.5 -20.5t29.5 -57.5t-21.5 -62.5t-70.5 -66.5l-233 -197h-58z" />
<glyph unicode="&#xd4;" horiz-adv-x="1464" d="M90 686q0 313 192.5 514t458.5 201q281 0 465.5 -212t184.5 -499q0 -131 -36 -243.5t-122 -222t-217 -181.5t-275 -72q-156 0 -293 81t-217.5 197t-110.5 214t-30 223zM446 729q0 -147 3.5 -203.5t15.5 -177.5t61 -216t215 -95t215.5 86t60.5 189.5t17 207t6 170.5 l-12 324q0 154 -68.5 237.5t-218.5 83.5q-141 0 -213.5 -85t-72.5 -246zM430 1474l225 406h170l223 -406h-63l-250 230l-244 -230h-61z" />
<glyph unicode="&#xd5;" horiz-adv-x="1464" d="M90 686q0 313 192.5 514t458.5 201q281 0 465.5 -212t184.5 -499q0 -131 -36 -243.5t-122 -222t-217 -181.5t-275 -72q-156 0 -293 81t-217.5 197t-110.5 214t-30 223zM446 729q0 -147 3.5 -203.5t15.5 -177.5t61 -216t215 -95t215.5 86t60.5 189.5t17 207t6 170.5 l-12 324q0 154 -68.5 237.5t-218.5 83.5q-141 0 -213.5 -85t-72.5 -246zM428 1556q18 86 60 172t161 86q53 0 174 -48t154 -48q41 0 57 30.5t26 65.5h48q-16 -86 -55.5 -173t-151.5 -87q-59 0 -195.5 54.5t-150.5 54.5q-39 0 -54.5 -35t-25.5 -72h-47z" />
<glyph unicode="&#xd6;" horiz-adv-x="1464" d="M90 686q0 313 192.5 514t458.5 201q281 0 465.5 -212t184.5 -499q0 -131 -36 -243.5t-122 -222t-217 -181.5t-275 -72q-156 0 -293 81t-217.5 197t-110.5 214t-30 223zM446 729q0 -147 3.5 -203.5t15.5 -177.5t61 -216t215 -95t215.5 86t60.5 189.5t17 207t6 170.5 l-12 324q0 154 -68.5 237.5t-218.5 83.5q-141 0 -213.5 -85t-72.5 -246zM385 1687q0 59 43 102.5t103 43.5q59 0 102 -43t43 -103q0 -59 -43 -102t-102 -43t-102.5 43t-43.5 102zM826 1689q0 59 43 102.5t102 43.5t102.5 -43t43.5 -103q0 -59 -43 -102t-103 -43 q-59 0 -102 43t-43 102z" />
<glyph unicode="&#xd7;" d="M162 1036l63 64l350 -350l334 331l64 -63l-332 -334l350 -350l-63 -64l-353 351l-331 -332l-64 63l332 334z" />
<glyph unicode="&#xd8;" horiz-adv-x="1456" d="M82 692q0 279 189.5 492t465.5 213q109 0 173.5 -24.5t109.5 -51.5l90 160l74 -39l-90 -166q10 0 82.5 -76t135 -206t62.5 -302q0 -340 -206.5 -530.5t-440.5 -190.5q-104 0 -174 29t-119 59l-92 -165l-72 36l97 174q-10 0 -83 74t-137.5 206t-64.5 308zM436 662 q0 -160 10.5 -250t18.5 -131l498 942q-29 37 -77 74.5t-145 37.5q-59 0 -110 -13t-100.5 -58t-69 -125t-19.5 -185l-4 -145zM500 168q25 -45 70.5 -88t160.5 -43q92 0 162 48t92 136q31 123 31 252l4 248v139q0 92 -6 149.5t-17 102.5z" />
<glyph unicode="&#xd9;" horiz-adv-x="1513" d="M49 1300v66h643v-66h-155v-866q0 -168 75.5 -268t245.5 -100q180 0 281.5 101t101.5 318v650q0 84 -20.5 126t-114.5 42h-49v63h397v-66h-27q-63 0 -87.5 -40.5t-24.5 -110.5v-635q0 -303 -139.5 -429t-391.5 -126q-264 0 -421.5 128t-157.5 380v833h-156zM553 1800 q0 35 29.5 56.5t68.5 21.5q61 0 98 -43t70 -117l117 -244h-58l-233 197q-43 35 -67.5 64.5t-24.5 64.5z" />
<glyph unicode="&#xda;" horiz-adv-x="1513" d="M49 1300v66h643v-66h-155v-866q0 -168 75.5 -268t245.5 -100q180 0 281.5 101t101.5 318v650q0 84 -20.5 126t-114.5 42h-49v63h397v-66h-27q-63 0 -87.5 -40.5t-24.5 -110.5v-635q0 -303 -139.5 -429t-391.5 -126q-264 0 -421.5 128t-157.5 380v833h-156zM743 1474 l117 244q35 78 70 119t98 41q39 0 68.5 -20.5t29.5 -57.5t-21.5 -62.5t-70.5 -66.5l-233 -197h-58z" />
<glyph unicode="&#xdb;" horiz-adv-x="1513" d="M49 1300v66h643v-66h-155v-866q0 -168 75.5 -268t245.5 -100q180 0 281.5 101t101.5 318v650q0 84 -20.5 126t-114.5 42h-49v63h397v-66h-27q-63 0 -87.5 -40.5t-24.5 -110.5v-635q0 -303 -139.5 -429t-391.5 -126q-264 0 -421.5 128t-157.5 380v833h-156zM529 1474 l225 406h170l223 -406h-63l-250 230l-244 -230h-61z" />
<glyph unicode="&#xdc;" horiz-adv-x="1513" d="M49 1300v66h643v-66h-155v-866q0 -168 75.5 -268t245.5 -100q180 0 281.5 101t101.5 318v650q0 84 -20.5 126t-114.5 42h-49v63h397v-66h-27q-63 0 -87.5 -40.5t-24.5 -110.5v-635q0 -303 -139.5 -429t-391.5 -126q-264 0 -421.5 128t-157.5 380v833h-156zM493 1685 q0 59 43 102.5t103 43.5q59 0 102 -43t43 -103q0 -59 -43 -102t-102 -43t-102.5 43t-43.5 102zM934 1687q0 59 43 102.5t102 43.5t102.5 -43t43.5 -103q0 -59 -43 -102t-103 -43q-59 0 -102 43t-43 102z" />
<glyph unicode="&#xdd;" horiz-adv-x="1226" d="M-41 1300v66h641v-66h-145l295 -692l227 525q10 25 21.5 53t11.5 49q0 66 -95 65h-45v66h398v-66h-27q-72 0 -107.5 -38.5t-74.5 -126.5l-254 -578v-491h158v-66h-639v66h155v413l-368 821h-152zM600 1476l117 244q35 78 70 119t98 41q39 0 68.5 -20.5t29.5 -57.5 t-21.5 -62.5t-70.5 -66.5l-233 -197h-58z" />
<glyph unicode="&#xde;" horiz-adv-x="1382" d="M76 0v66h155v1234h-155v66h665v-66h-186v-135l270 11q201 0 353.5 -89.5t152.5 -275.5q0 -223 -178 -318.5t-367 -95.5l-231 9v-340h186v-66h-665zM555 467l100 -4q78 0 141.5 17.5t104.5 51.5q51 45 69.5 113t18.5 152t-13 143t-56 104.5t-101.5 56.5t-150.5 11 q-23 0 -53.5 -2t-59.5 -6v-637z" />
<glyph unicode="&#xdf;" horiz-adv-x="1208" d="M51 0v61h121v752q0 193 34 288t99 163q68 68 157 101.5t189 33.5q141 0 252 -67.5t111 -201.5q0 -94 -40 -155.5t-128 -140.5l-31 -27q-25 -20 -41 -36.5t-16 -27.5q0 -8 28.5 -23t67.5 -28l29 -10q147 -51 205.5 -118.5t58.5 -211.5q0 -221 -103.5 -293.5t-222.5 -72.5 q-94 0 -177 59t-83 141q0 61 43 106.5t88 45.5q53 0 92 -31t39 -80t-32 -82q-37 -31 -72 -61q0 -20 36 -29.5t60 -9.5q84 0 152.5 41t68.5 117q0 72 -49 107.5t-143 74.5l-45 18q-88 35 -139.5 73t-51.5 110q0 49 25.5 100t105.5 131l27 27q63 63 84.5 120.5t21.5 153.5 q0 106 -50 162.5t-156 56.5q-115 0 -160 -59t-45 -180v-1098h-410z" />
<glyph unicode="&#xe0;" horiz-adv-x="1132" d="M68 240q0 150 143 214t315 64l154 8l-2 121q0 129 -39 161t-131 32q-80 0 -137.5 -11.5t-57.5 -37.5q23 -8 58 -31t35 -84q0 -49 -37 -86t-86 -37q-57 0 -94 37t-37 96q0 84 93 147.5t277 63.5q106 0 190.5 -21.5t163 -71.5t78.5 -212v-408q0 -35 6.5 -61.5t28.5 -26.5 q29 0 45.5 41t16.5 66l55 -10q0 -68 -55.5 -139.5t-167.5 -71.5q-68 0 -109 23.5t-78 82.5q-66 -59 -125 -82.5t-147 -23.5q-145 0 -250.5 61.5t-105.5 196.5zM356 262q0 -94 31 -146.5t117 -52.5q88 0 132 52.5t44 142.5v209q-61 0 -129 -4t-116 -24.5t-63.5 -63.5 t-15.5 -113zM252 1317q0 35 29.5 56.5t68.5 21.5q61 0 98 -43t70 -117l117 -244h-58l-233 197q-43 35 -67.5 64.5t-24.5 64.5z" />
<glyph unicode="&#xe1;" horiz-adv-x="1132" d="M68 240q0 150 143 214t315 64l154 8l-2 121q0 129 -39 161t-131 32q-80 0 -137.5 -11.5t-57.5 -37.5q23 -8 58 -31t35 -84q0 -49 -37 -86t-86 -37q-57 0 -94 37t-37 96q0 84 93 147.5t277 63.5q106 0 190.5 -21.5t163 -71.5t78.5 -212v-408q0 -35 6.5 -61.5t28.5 -26.5 q29 0 45.5 41t16.5 66l55 -10q0 -68 -55.5 -139.5t-167.5 -71.5q-68 0 -109 23.5t-78 82.5q-66 -59 -125 -82.5t-147 -23.5q-145 0 -250.5 61.5t-105.5 196.5zM356 262q0 -94 31 -146.5t117 -52.5q88 0 132 52.5t44 142.5v209q-61 0 -129 -4t-116 -24.5t-63.5 -63.5 t-15.5 -113zM415 991l117 244q35 78 70 119t98 41q39 0 68.5 -20.5t29.5 -57.5t-21.5 -62.5t-70.5 -66.5l-233 -197h-58z" />
<glyph unicode="&#xe2;" horiz-adv-x="1132" d="M68 240q0 150 143 214t315 64l154 8l-2 121q0 129 -39 161t-131 32q-80 0 -137.5 -11.5t-57.5 -37.5q23 -8 58 -31t35 -84q0 -49 -37 -86t-86 -37q-57 0 -94 37t-37 96q0 84 93 147.5t277 63.5q106 0 190.5 -21.5t163 -71.5t78.5 -212v-408q0 -35 6.5 -61.5t28.5 -26.5 q29 0 45.5 41t16.5 66l55 -10q0 -68 -55.5 -139.5t-167.5 -71.5q-68 0 -109 23.5t-78 82.5q-66 -59 -125 -82.5t-147 -23.5q-145 0 -250.5 61.5t-105.5 196.5zM356 262q0 -94 31 -146.5t117 -52.5q88 0 132 52.5t44 142.5v209q-61 0 -129 -4t-116 -24.5t-63.5 -63.5 t-15.5 -113zM256 989l225 406h170l223 -406h-63l-250 230l-244 -230h-61z" />
<glyph unicode="&#xe3;" horiz-adv-x="1132" d="M68 240q0 150 143 214t315 64l154 8l-2 121q0 129 -39 161t-131 32q-80 0 -137.5 -11.5t-57.5 -37.5q23 -8 58 -31t35 -84q0 -49 -37 -86t-86 -37q-57 0 -94 37t-37 96q0 84 93 147.5t277 63.5q106 0 190.5 -21.5t163 -71.5t78.5 -212v-408q0 -35 6.5 -61.5t28.5 -26.5 q29 0 45.5 41t16.5 66l55 -10q0 -68 -55.5 -139.5t-167.5 -71.5q-68 0 -109 23.5t-78 82.5q-66 -59 -125 -82.5t-147 -23.5q-145 0 -250.5 61.5t-105.5 196.5zM356 262q0 -94 31 -146.5t117 -52.5q88 0 132 52.5t44 142.5v209q-61 0 -129 -4t-116 -24.5t-63.5 -63.5 t-15.5 -113zM252 1073q18 86 60 172t161 86q53 0 174 -48t154 -48q41 0 57 30.5t26 65.5h48q-16 -86 -55.5 -173t-151.5 -87q-59 0 -195.5 54.5t-150.5 54.5q-39 0 -54.5 -35t-25.5 -72h-47z" />
<glyph unicode="&#xe4;" horiz-adv-x="1132" d="M68 240q0 150 143 214t315 64l154 8l-2 121q0 129 -39 161t-131 32q-80 0 -137.5 -11.5t-57.5 -37.5q23 -8 58 -31t35 -84q0 -49 -37 -86t-86 -37q-57 0 -94 37t-37 96q0 84 93 147.5t277 63.5q106 0 190.5 -21.5t163 -71.5t78.5 -212v-408q0 -35 6.5 -61.5t28.5 -26.5 q29 0 45.5 41t16.5 66l55 -10q0 -68 -55.5 -139.5t-167.5 -71.5q-68 0 -109 23.5t-78 82.5q-66 -59 -125 -82.5t-147 -23.5q-145 0 -250.5 61.5t-105.5 196.5zM356 262q0 -94 31 -146.5t117 -52.5q88 0 132 52.5t44 142.5v209q-61 0 -129 -4t-116 -24.5t-63.5 -63.5 t-15.5 -113zM200 1204q0 59 43 102.5t103 43.5q59 0 102 -43t43 -103q0 -59 -43 -102t-102 -43t-102.5 43t-43.5 102zM641 1206q0 59 43 102.5t102 43.5t102.5 -43t43.5 -103q0 -59 -43 -102t-103 -43q-59 0 -102 43t-43 102z" />
<glyph unicode="&#xe5;" horiz-adv-x="1132" d="M68 240q0 150 143 214t315 64l154 8l-2 121q0 129 -39 161t-131 32q-80 0 -137.5 -11.5t-57.5 -37.5q23 -8 58 -31t35 -84q0 -49 -37 -86t-86 -37q-57 0 -94 37t-37 96q0 84 93 147.5t277 63.5q106 0 190.5 -21.5t163 -71.5t78.5 -212v-408q0 -35 6.5 -61.5t28.5 -26.5 q29 0 45.5 41t16.5 66l55 -10q0 -68 -55.5 -139.5t-167.5 -71.5q-68 0 -109 23.5t-78 82.5q-66 -59 -125 -82.5t-147 -23.5q-145 0 -250.5 61.5t-105.5 196.5zM356 262q0 -94 31 -146.5t117 -52.5q88 0 132 52.5t44 142.5v209q-61 0 -129 -4t-116 -24.5t-63.5 -63.5 t-15.5 -113zM354 1208q0 86 61.5 149.5t149.5 63.5t150.5 -62.5t62.5 -150.5q0 -86 -62.5 -148.5t-150.5 -62.5q-86 0 -148.5 62.5t-62.5 148.5zM442 1208q0 -51 36 -87t87 -36t87 36t36 87t-36 87t-87 36t-87 -36t-36 -87z" />
<glyph unicode="&#xe6;" horiz-adv-x="1527" d="M82 236q0 123 89 184t195.5 76.5t162 20.5t96.5 5v180q0 137 -144 138q-33 0 -86 -14.5t-53 -39.5q0 -2 20 -16q57 -29 58 -98q0 -49 -39 -86t-90 -37q-55 0 -93 40t-38 91q0 104 112.5 161.5t245.5 57.5q100 0 170 -24.5t119 -49.5q41 25 101.5 48.5t142.5 23.5 q168 0 298 -120t130 -316h-578v-94q0 -201 49 -259.5t152 -58.5q133 0 231.5 91t98.5 202h61q0 -145 -124 -256t-298 -111q-182 0 -266 59.5t-133 121.5q-29 -61 -86.5 -121t-196.5 -60q-125 0 -216 72t-91 189zM375 254q0 -76 21.5 -134.5t80.5 -58.5q90 0 115.5 58.5 t29 90.5t3.5 95v156h-21q-55 0 -103 -8.5t-79 -30.5q-20 -16 -33.5 -58t-13.5 -110zM901 526h268l-4 107q0 98 -25.5 152.5t-111.5 54.5q-59 0 -93 -43t-34 -166v-105z" />
<glyph unicode="&#xe7;" horiz-adv-x="1005" d="M76 432q0 193 155.5 330t352.5 137q154 0 265.5 -61.5t111.5 -171.5q0 -61 -41 -104.5t-103 -43.5q-63 0 -106 41t-43 96q0 49 22 84q25 27 51 56q0 18 -54 31.5t-87 13.5q-61 0 -108.5 -16.5t-70 -58.5t-27.5 -126t-5 -104v-68q0 -190 4 -235.5t23.5 -95.5t69 -70.5 t106.5 -20.5q80 0 138 23.5t100 65.5t59.5 89t28.5 86h61q0 -37 -23.5 -103.5t-68.5 -116.5t-128 -81t-163 -31l-80 -137q10 2 38 7.5t36 5.5q80 0 134 -37t54 -109q0 -76 -67.5 -117t-147.5 -41q-82 0 -138 14.5t-99 33.5l24 51q29 -10 66 -20.5t67 -10.5q43 0 77 22.5 t34 63.5q0 33 -24.5 51.5t-57.5 18.5q-16 0 -36.5 -7.5t-31.5 -11.5l-24 29l112 197q-186 0 -321 139t-135 313z" />
<glyph unicode="&#xe8;" horiz-adv-x="1032" d="M49 430q0 197 133 332t332 135q174 0 301 -133t127 -303h-584q0 -102 3.5 -143.5t13.5 -113t61 -112.5t123 -41q170 0 235.5 96.5t98.5 194.5h63q-12 -47 -24 -92q-41 -106 -140.5 -188t-275.5 -82q-199 0 -333 125.5t-134 324.5zM360 526h269l-4 160q0 74 -25 113 t-94 39q-76 0 -110 -36t-34 -126zM244 1317q0 35 29.5 56.5t68.5 21.5q61 0 98 -43t70 -117l117 -244h-58l-233 197q-43 35 -67.5 64.5t-24.5 64.5z" />
<glyph unicode="&#xe9;" horiz-adv-x="1032" d="M49 430q0 197 133 332t332 135q174 0 301 -133t127 -303h-584q0 -102 3.5 -143.5t13.5 -113t61 -112.5t123 -41q170 0 235.5 96.5t98.5 194.5h63q-12 -47 -24 -92q-41 -106 -140.5 -188t-275.5 -82q-199 0 -333 125.5t-134 324.5zM360 526h269l-4 160q0 74 -25 113 t-94 39q-76 0 -110 -36t-34 -126zM407 991l117 244q35 78 70 119t98 41q39 0 68.5 -20.5t29.5 -57.5t-21.5 -62.5t-70.5 -66.5l-233 -197h-58z" />
<glyph unicode="&#xea;" horiz-adv-x="1032" d="M49 430q0 197 133 332t332 135q174 0 301 -133t127 -303h-584q0 -102 3.5 -143.5t13.5 -113t61 -112.5t123 -41q170 0 235.5 96.5t98.5 194.5h63q-12 -47 -24 -92q-41 -106 -140.5 -188t-275.5 -82q-199 0 -333 125.5t-134 324.5zM360 526h269l-4 160q0 74 -25 113 t-94 39q-76 0 -110 -36t-34 -126zM207 989l225 406h170l223 -406h-63l-250 230l-244 -230h-61z" />
<glyph unicode="&#xeb;" horiz-adv-x="1032" d="M49 430q0 197 133 332t332 135q174 0 301 -133t127 -303h-584q0 -102 3.5 -143.5t13.5 -113t61 -112.5t123 -41q170 0 235.5 96.5t98.5 194.5h63q-12 -47 -24 -92q-41 -106 -140.5 -188t-275.5 -82q-199 0 -333 125.5t-134 324.5zM360 526h269l-4 160q0 74 -25 113 t-94 39q-76 0 -110 -36t-34 -126zM151 1204q0 59 43 102.5t103 43.5q59 0 102 -43t43 -103q0 -59 -43 -102t-102 -43t-102.5 43t-43.5 102zM592 1206q0 59 43 102.5t102 43.5t102.5 -43t43.5 -103q0 -59 -43 -102t-103 -43q-59 0 -102 43t-43 102z" />
<glyph unicode="&#xec;" horiz-adv-x="655" d="M70 0v61h120v748h-120v61h213h30q61 0 93 8.5t71 43.5v-861h121v-61h-528zM27 1317q0 35 29.5 56.5t68.5 21.5q61 0 98 -43t70 -117l117 -244h-58l-233 197q-43 35 -67.5 64.5t-24.5 64.5z" />
<glyph unicode="&#xed;" horiz-adv-x="655" d="M70 0v61h120v748h-120v61h213h30q61 0 93 8.5t71 43.5v-861h121v-61h-528zM245 991l117 244q35 78 70 119t98 41q39 0 68.5 -20.5t29.5 -57.5t-21.5 -62.5t-70.5 -66.5l-233 -197h-58z" />
<glyph unicode="&#xee;" horiz-adv-x="655" d="M70 0v61h120v748h-120v61h213h30q61 0 93 8.5t71 43.5v-861h121v-61h-528zM8 989l225 406h170l223 -406h-63l-250 230l-244 -230h-61z" />
<glyph unicode="&#xef;" horiz-adv-x="655" d="M70 0v61h120v748h-120v61h213h30q61 0 93 8.5t71 43.5v-861h121v-61h-528zM-50 1204q0 59 43 102.5t103 43.5q59 0 102 -43t43 -103q0 -59 -43 -102t-102 -43t-102.5 43t-43.5 102zM391 1206q0 59 43 102.5t102 43.5t102.5 -43t43.5 -103q0 -59 -43 -102t-103 -43 q-59 0 -102 43t-43 102z" />
<glyph unicode="&#xf0;" horiz-adv-x="1138" d="M76 1339l24 56q109 -23 195 -50.5t178 -74.5l277 180l36 -59l-243 -160q84 -57 180 -134t172 -184.5t123 -221t47 -222.5q0 -207 -143.5 -348t-346.5 -141q-106 0 -192 31.5t-156.5 100t-108.5 149.5t-38 171q0 190 140 326.5t349 136.5q51 0 79 -7t40 -14 q-47 84 -101.5 153t-146.5 140l-274 -178l-37 55l254 164q-63 47 -129.5 72.5t-177.5 58.5zM399 250q0 -98 40 -154.5t134 -56.5t134.5 57.5t40.5 155.5v373q0 104 -37 157.5t-136 53.5q-106 0 -141 -67t-35 -146v-373z" />
<glyph unicode="&#xf1;" horiz-adv-x="1288" d="M72 0v61h121v748h-121v61h213h28q61 0 95 8.5t71 43.5v-183q41 53 112 105.5t214 52.5q139 0 222 -74.5t83 -199.5v-562h121v-61h-529v61h121v629q0 55 -31.5 83t-89.5 28q-92 0 -157.5 -80t-65.5 -176v-484h121v-61h-528zM303 1073q18 86 60 172t161 86q53 0 174 -48 t154 -48q41 0 57 30.5t26 65.5h48q-16 -86 -55.5 -173t-151.5 -87q-59 0 -195.5 54.5t-150.5 54.5q-39 0 -54.5 -35t-25.5 -72h-47z" />
<glyph unicode="&#xf2;" horiz-adv-x="1136" d="M76 434q0 195 146.5 329t344.5 134q197 0 345.5 -130t148.5 -325t-146.5 -328.5t-341.5 -133.5q-207 0 -352 133t-145 321zM397 250q0 -98 39 -154.5t135 -56.5q100 0 136 54t36 159v373q0 104 -36.5 158.5t-135.5 54.5q-94 0 -134 -55.5t-40 -157.5v-375zM295 1315 q0 35 29.5 56.5t68.5 21.5q61 0 98 -43t70 -117l117 -244h-58l-233 197q-43 35 -67.5 64.5t-24.5 64.5z" />
<glyph unicode="&#xf3;" horiz-adv-x="1136" d="M76 434q0 195 146.5 329t344.5 134q197 0 345.5 -130t148.5 -325t-146.5 -328.5t-341.5 -133.5q-207 0 -352 133t-145 321zM397 250q0 -98 39 -154.5t135 -56.5q100 0 136 54t36 159v373q0 104 -36.5 158.5t-135.5 54.5q-94 0 -134 -55.5t-40 -157.5v-375zM458 989 l117 244q35 78 70 119t98 41q39 0 68.5 -20.5t29.5 -57.5t-21.5 -62.5t-70.5 -66.5l-233 -197h-58z" />
<glyph unicode="&#xf4;" horiz-adv-x="1136" d="M76 434q0 195 146.5 329t344.5 134q197 0 345.5 -130t148.5 -325t-146.5 -328.5t-341.5 -133.5q-207 0 -352 133t-145 321zM397 250q0 -98 39 -154.5t135 -56.5q100 0 136 54t36 159v373q0 104 -36.5 158.5t-135.5 54.5q-94 0 -134 -55.5t-40 -157.5v-375zM260 989 l225 406h170l223 -406h-63l-250 230l-244 -230h-61z" />
<glyph unicode="&#xf5;" horiz-adv-x="1136" d="M76 434q0 195 146.5 329t344.5 134q197 0 345.5 -130t148.5 -325t-146.5 -328.5t-341.5 -133.5q-207 0 -352 133t-145 321zM397 250q0 -98 39 -154.5t135 -56.5q100 0 136 54t36 159v373q0 104 -36.5 158.5t-135.5 54.5q-94 0 -134 -55.5t-40 -157.5v-375zM240 1073 q18 86 60 172t161 86q53 0 174 -48t154 -48q41 0 57 30.5t26 65.5h48q-16 -86 -55.5 -173t-151.5 -87q-59 0 -195.5 54.5t-150.5 54.5q-39 0 -54.5 -35t-25.5 -72h-47z" />
<glyph unicode="&#xf6;" horiz-adv-x="1136" d="M76 434q0 195 146.5 329t344.5 134q197 0 345.5 -130t148.5 -325t-146.5 -328.5t-341.5 -133.5q-207 0 -352 133t-145 321zM397 250q0 -98 39 -154.5t135 -56.5q100 0 136 54t36 159v373q0 104 -36.5 158.5t-135.5 54.5q-94 0 -134 -55.5t-40 -157.5v-375zM223 1202 q0 59 43 102.5t103 43.5q59 0 102 -43t43 -103q0 -59 -43 -102t-102 -43t-102.5 43t-43.5 102zM664 1204q0 59 43 102.5t102 43.5t102.5 -43t43.5 -103q0 -59 -43 -102t-103 -43q-59 0 -102 43t-43 102z" />
<glyph unicode="&#xf7;" d="M94 639v90h965v-90h-965zM483 387q0 37 27 65.5t65 28.5q39 0 67 -27.5t28 -66.5q0 -37 -28 -64.5t-67 -27.5q-37 0 -64.5 27.5t-27.5 64.5zM483 979q0 37 27 65.5t65 28.5q39 0 67 -27.5t28 -66.5q0 -37 -28 -64.5t-67 -27.5q-37 0 -64.5 27.5t-27.5 64.5z" />
<glyph unicode="&#xf8;" horiz-adv-x="1130" d="M74 442q0 201 146.5 328t348.5 127q72 0 114 -12.5t71 -24.5l80 127l65 -39l-74 -123q78 -53 154 -139t76 -250q0 -166 -130 -311t-368 -145q-96 0 -139 15t-60 25l-79 -131l-70 39l74 133q-70 51 -139.5 134t-69.5 247zM387 227l313 551q-16 20 -45.5 41t-93.5 21 q-82 0 -128 -54.5t-46 -144.5v-414zM412 109q10 -12 37.5 -41t101.5 -29q123 0 152.5 68.5t29.5 211.5v349z" />
<glyph unicode="&#xf9;" horiz-adv-x="1267" d="M57 809v61h213h31q61 0 95 8.5t69 43.5v-691v-26q0 -61 22.5 -103.5t96.5 -42.5q80 0 150.5 79t70.5 163v508h-121v61h213h31q61 0 95 8.5t69 43.5v-861h120v-61h-407v121q-33 -47 -96.5 -94t-210.5 -47q-150 0 -235 78.5t-85 222.5v528h-121zM361 1317q0 35 29.5 56.5 t68.5 21.5q61 0 98 -43t70 -117l117 -244h-58l-233 197q-43 35 -67.5 64.5t-24.5 64.5z" />
<glyph unicode="&#xfa;" horiz-adv-x="1267" d="M57 809v61h213h31q61 0 95 8.5t69 43.5v-691v-26q0 -61 22.5 -103.5t96.5 -42.5q80 0 150.5 79t70.5 163v508h-121v61h213h31q61 0 95 8.5t69 43.5v-861h120v-61h-407v121q-33 -47 -96.5 -94t-210.5 -47q-150 0 -235 78.5t-85 222.5v528h-121zM524 991l117 244 q35 78 70 119t98 41q39 0 68.5 -20.5t29.5 -57.5t-21.5 -62.5t-70.5 -66.5l-233 -197h-58z" />
<glyph unicode="&#xfb;" horiz-adv-x="1267" d="M57 809v61h213h31q61 0 95 8.5t69 43.5v-691v-26q0 -61 22.5 -103.5t96.5 -42.5q80 0 150.5 79t70.5 163v508h-121v61h213h31q61 0 95 8.5t69 43.5v-861h120v-61h-407v121q-33 -47 -96.5 -94t-210.5 -47q-150 0 -235 78.5t-85 222.5v528h-121zM326 989l225 406h170 l223 -406h-63l-250 230l-244 -230h-61z" />
<glyph unicode="&#xfc;" horiz-adv-x="1267" d="M57 809v61h213h31q61 0 95 8.5t69 43.5v-691v-26q0 -61 22.5 -103.5t96.5 -42.5q80 0 150.5 79t70.5 163v508h-121v61h213h31q61 0 95 8.5t69 43.5v-861h120v-61h-407v121q-33 -47 -96.5 -94t-210.5 -47q-150 0 -235 78.5t-85 222.5v528h-121zM270 1202q0 59 43 102.5 t103 43.5q59 0 102 -43t43 -103q0 -59 -43 -102t-102 -43t-102.5 43t-43.5 102zM711 1204q0 59 43 102.5t102 43.5t102.5 -43t43.5 -103q0 -59 -43 -102t-103 -43q-59 0 -102 43t-43 102z" />
<glyph unicode="&#xfd;" horiz-adv-x="974" d="M-43 809v61h578v-61h-129l198 -500l162 359q6 12 11 32.5t5 42.5q0 66 -80 66h-61v61h377v-61h-25q-90 0 -141 -113l-225 -495q-43 -102 -70 -174t-37 -117l-10 -43q-14 -66 -30.5 -135.5t-46.5 -119.5t-76 -82t-101 -32q-66 0 -116 44t-50 110q0 59 39 98t100 39 q51 0 93.5 -38t42.5 -87l-3 -33q14 12 30 36t28 73t26.5 123t14.5 98l-383 848h-121zM419 991l117 244q35 78 70 119t98 41q39 0 68.5 -20.5t29.5 -57.5t-21.5 -62.5t-70.5 -66.5l-233 -197h-58z" />
<glyph unicode="&#xfe;" horiz-adv-x="1247" d="M57 -438h121v1743h-121v61h209q55 0 90 5t66 30l41 31v-656q27 41 81 81t187 40q180 0 310 -138t130 -321q0 -168 -82.5 -267t-176 -144t-195.5 -45q-141 0 -189.5 46t-64.5 72v-538h131v-62h-537v62zM463 375q0 -96 9 -152.5t47 -94.5t81 -57.5t84 -19.5q115 0 147.5 90 t32.5 234v172q0 125 -33.5 202.5t-140.5 77.5q-82 0 -135 -45t-72.5 -96t-19.5 -166v-145z" />
<glyph unicode="&#xff;" horiz-adv-x="974" d="M-43 809v61h578v-61h-129l198 -500l162 359q6 12 11 32.5t5 42.5q0 66 -80 66h-61v61h377v-61h-25q-90 0 -141 -113l-225 -495q-43 -102 -70 -174t-37 -117l-10 -43q-14 -66 -30.5 -135.5t-46.5 -119.5t-76 -82t-101 -32q-66 0 -116 44t-50 110q0 59 39 98t100 39 q51 0 93.5 -38t42.5 -87l-3 -33q14 12 30 36t28 73t26.5 123t14.5 98l-383 848h-121zM221 1204q0 59 43 102.5t103 43.5q59 0 102 -43t43 -103q0 -59 -43 -102t-102 -43t-102.5 43t-43.5 102zM662 1206q0 59 43 102.5t102 43.5t102.5 -43t43.5 -103q0 -59 -43 -102t-103 -43 q-59 0 -102 43t-43 102z" />
<glyph unicode="&#x152;" horiz-adv-x="1851" d="M82 713q0 266 166 475t426 209q47 0 148.5 -16.5t152.5 -16.5h749l5 -406h-62v25q0 106 -78 210.5t-266 104.5h-141v-548h86q70 0 114.5 42t44.5 183v45h64v-631h-64v25q0 102 -36.5 186t-124.5 84h-84v-618h159q229 0 302 103t73 265v23h60v-457h-742q-68 0 -162 -9 t-196 -20q-268 0 -431 224.5t-163 517.5zM438 705l15 -326q18 -190 78.5 -266t154.5 -76q117 0 149.5 56.5t32.5 180.5v803q0 135 -33.5 195.5t-156.5 60.5q-76 0 -127 -47t-75.5 -123t-31 -187t-6.5 -271z" />
<glyph unicode="&#x153;" horiz-adv-x="1636" d="M76 440q0 184 146.5 318.5t332.5 134.5q106 0 176 -34t119 -68q49 37 116.5 71.5t163.5 34.5q188 0 314.5 -128t126.5 -310h-570l5 -195q0 -100 51 -157.5t143 -57.5q123 0 206 85t112 210h67q-43 -182 -153.5 -274.5t-288.5 -92.5q-104 0 -174 34t-119 69 q-25 -20 -90.5 -62.5t-202.5 -42.5q-201 0 -341 132t-140 333zM395 281q0 -139 43 -192.5t117 -53.5q96 0 126 69.5t30 180.5v321q0 129 -42 178.5t-112 49.5q-92 0 -127 -63.5t-35 -164.5v-325zM999 522h261q0 184 -26 251t-108 67q-61 0 -94 -46t-33 -198v-74z" />
<glyph unicode="&#x178;" horiz-adv-x="1226" d="M-41 1300v66h641v-66h-145l295 -692l227 525q10 25 21.5 53t11.5 49q0 66 -95 65h-45v66h398v-66h-27q-72 0 -107.5 -38.5t-74.5 -126.5l-254 -578v-491h158v-66h-639v66h155v413l-368 821h-152zM360 1687q0 59 43 102.5t103 43.5q59 0 102 -43t43 -103q0 -59 -43 -102 t-102 -43t-102.5 43t-43.5 102zM801 1689q0 59 43 102.5t102 43.5t102.5 -43t43.5 -103q0 -59 -43 -102t-103 -43q-59 0 -102 43t-43 102z" />
<glyph unicode="&#x2c6;" horiz-adv-x="1024" d="M203 989l225 406h170l223 -406h-63l-250 230l-244 -230h-61z" />
<glyph unicode="&#x2000;" horiz-adv-x="968" />
<glyph unicode="&#x2001;" horiz-adv-x="1939" />
<glyph unicode="&#x2002;" horiz-adv-x="968" />
<glyph unicode="&#x2003;" horiz-adv-x="1939" />
<glyph unicode="&#x2004;" horiz-adv-x="645" />
<glyph unicode="&#x2005;" horiz-adv-x="483" />
<glyph unicode="&#x2006;" horiz-adv-x="321" />
<glyph unicode="&#x2007;" horiz-adv-x="321" />
<glyph unicode="&#x2008;" horiz-adv-x="241" />
<glyph unicode="&#x2009;" horiz-adv-x="387" />
<glyph unicode="&#x200a;" horiz-adv-x="106" />
<glyph unicode="&#x2010;" horiz-adv-x="583" d="M0 358l80 181h504l-80 -181h-504z" />
<glyph unicode="&#x2011;" horiz-adv-x="583" d="M0 358l80 181h504l-80 -181h-504z" />
<glyph unicode="&#x2012;" horiz-adv-x="583" d="M0 358l80 181h504l-80 -181h-504z" />
<glyph unicode="&#x2013;" d="M76 358l80 181h921l-80 -181h-921z" />
<glyph unicode="&#x2014;" horiz-adv-x="1527" d="M-100 358l80 181h1648l-80 -181h-1648z" />
<glyph unicode="&#x2018;" horiz-adv-x="630" d="M131 1108q0 82 29.5 160t87 134t108 78.5t90.5 37.5l17 -62q-53 -20 -112.5 -54t-98.5 -106q-25 -43 -31 -74.5t-10 -56.5q14 12 35.5 22.5t60.5 10.5q61 0 106.5 -45t45.5 -104q0 -68 -44 -118t-112 -50q-82 0 -127 69.5t-45 157.5z" />
<glyph unicode="&#x2019;" horiz-adv-x="593" d="M150 885q29 10 91 39.5t107 111.5q29 51 33 81t6 42q-14 -10 -34.5 -20.5t-55.5 -10.5q-59 0 -101 42t-42 100q0 66 42 111.5t105 45.5q78 0 120 -66.5t42 -148.5q0 -166 -82 -247.5t-129 -103t-86 -34.5z" />
<glyph unicode="&#x201a;" horiz-adv-x="593" d="M123 -264q29 10 91 39.5t108 111.5q29 51 32.5 81t5.5 42q-14 -10 -34.5 -20t-55.5 -10q-59 0 -101 41.5t-42 99.5q0 66 42 112t105 46q78 0 120 -67t42 -149q0 -166 -82 -247.5t-129 -103t-86 -34.5z" />
<glyph unicode="&#x201c;" horiz-adv-x="1050" d="M131 1108q0 82 29.5 160t87 134t108 78.5t90.5 37.5l17 -62q-53 -20 -112.5 -54t-98.5 -106q-25 -43 -31 -74.5t-10 -56.5q14 12 35.5 22.5t60.5 10.5q61 0 106.5 -45t45.5 -104q0 -68 -44 -118t-112 -50q-82 0 -127 69.5t-45 157.5zM588 1108q0 82 29.5 160t87 134 t107.5 78.5t91 37.5l17 -62q-53 -20 -112.5 -54t-98.5 -106q-25 -43 -31 -74.5t-10 -56.5q14 12 35.5 22.5t60.5 10.5q61 0 106 -45t45 -104q0 -70 -45 -119t-112 -49q-82 0 -126 70.5t-44 156.5z" />
<glyph unicode="&#x201d;" horiz-adv-x="989" d="M123 887q29 10 91 39.5t108 111.5q29 51 32.5 81t5.5 42q-14 -10 -34.5 -20.5t-55.5 -10.5q-59 0 -101 42t-42 100q0 66 42 112t105 46q78 0 120 -67t42 -149q0 -166 -82 -247.5t-129 -103t-86 -34.5zM553 887q29 10 91.5 39.5t107.5 111.5q29 51 32.5 81t6.5 42 q-14 -10 -35 -20.5t-56 -10.5q-59 0 -101 42t-42 100q0 66 42 112t106 46q78 0 119.5 -67t41.5 -149q0 -166 -82 -247.5t-129 -103t-86 -34.5z" />
<glyph unicode="&#x201e;" horiz-adv-x="989" d="M123 -264q29 10 91 39.5t108 111.5q29 51 32.5 81t5.5 42q-14 -10 -34.5 -20t-55.5 -10q-59 0 -101 41.5t-42 99.5q0 66 42 112t105 46q78 0 120 -67t42 -149q0 -166 -82 -247.5t-129 -103t-86 -34.5zM553 -264q29 10 91.5 39.5t107.5 111.5q29 51 32.5 81t6.5 42 q-14 -10 -35 -20t-56 -10q-59 0 -101 41.5t-42 99.5q0 66 42 112t106 46q78 0 119.5 -67t41.5 -149q0 -166 -82 -247.5t-129 -103t-86 -34.5z" />
<glyph unicode="&#x2022;" horiz-adv-x="1228" d="M340 696q0 117 82 201t201 84q117 0 198.5 -84t81.5 -201q0 -115 -82 -200.5t-198 -85.5q-117 0 -200 84.5t-83 201.5z" />
<glyph unicode="&#x2026;" horiz-adv-x="1685" d="M123 150q0 68 49 116.5t119 48.5q68 0 117 -49t49 -116q0 -68 -48.5 -118t-117.5 -50q-70 0 -119 49t-49 119zM702 150q0 68 49.5 116.5t118.5 48.5q68 0 117 -49t49 -116q0 -68 -48 -118t-118 -50t-119 49t-49 119zM1282 150q0 68 49 116.5t117 48.5t118 -48t50 -117 q0 -70 -49 -119t-119 -49q-68 0 -117 49t-49 119z" />
<glyph unicode="&#x202f;" horiz-adv-x="387" />
<glyph unicode="&#x2039;" horiz-adv-x="577" d="M96 446l269 347l77 -62l-221 -282l234 -285l-78 -60z" />
<glyph unicode="&#x203a;" horiz-adv-x="577" d="M123 164l231 285l-219 282l78 62l268 -347l-280 -342z" />
<glyph unicode="&#x205f;" horiz-adv-x="483" />
<glyph unicode="&#x2122;" horiz-adv-x="1837" d="M45 1112l8 254h721l6 -254h-37q0 88 -49 152.5t-143 64.5h-47v-704h98v-37h-379v37h99v704h-27q-100 0 -156.5 -60.5t-56.5 -156.5h-37zM811 588v39h25q16 0 31.5 3t24.5 21.5t11 55t2 63.5v559h-88v37h289l188 -539l203 539h279v-37h-88v-702h88v-39h-361v39h90v643 l-256 -682h-51l-252 696v-516v-29q0 -49 2 -64.5t12.5 -28.5t24.5 -16t43 -3h19v-39h-236z" />
<glyph unicode="&#xe000;" horiz-adv-x="870" d="M0 870h870v-870h-870v870z" />
<glyph unicode="&#xfb01;" horiz-adv-x="1331" d="M746 0v61h120v748h-120v61h213h30q61 0 93 8.5t71 43.5v-861h121v-61h-528zM834 1225q0 68 48 118t118 50t119 -49.5t49 -118.5q0 -68 -49.5 -117t-118.5 -49q-68 0 -117 49t-49 117zM72 0v61h121v748h-121v61h121v27q0 125 23.5 218t80.5 159.5t113.5 94.5t126.5 28 q86 0 150.5 -49.5t64.5 -133.5q0 -59 -36 -97t-95 -38q-51 0 -88 33t-37 86q0 51 30.5 87t65.5 36h14q-6 10 -21.5 15t-41.5 5q-61 0 -92 -38.5t-31 -104.5q0 -27 27.5 -128t27.5 -200h127v-61h-127v-748h127v-61h-530z" />
<glyph unicode="&#xfb02;" horiz-adv-x="1316" d="M733 0v61h121v1244h-121v61h211h33q63 0 93 10t71 54v-1369h119v-61h-527zM72 0v61h121v748h-121v61h121v27q0 125 23.5 218t80.5 159.5t113.5 94.5t126.5 28q86 0 150.5 -49.5t64.5 -133.5q0 -59 -36 -97t-95 -38q-51 0 -88 33t-37 86q0 51 30.5 87t65.5 36h14 q-6 10 -21.5 15t-41.5 5q-61 0 -92 -38.5t-31 -104.5q0 -27 27.5 -128t27.5 -200h127v-61h-127v-748h127v-61h-530z" />
<glyph unicode="&#xfb03;" horiz-adv-x="2007" d="M1422 0v61h120v748h-120v61h213h30q61 0 93 8.5t71 43.5v-861h121v-61h-528zM1510 1225q0 68 48 118t118 50t119 -49.5t49 -118.5q0 -68 -49.5 -117t-118.5 -49q-68 0 -117 49t-49 117zM748 0v61h121v748h-121v61h121v27q0 125 23.5 218t80.5 159.5t113.5 94.5t126.5 28 q86 0 150.5 -49.5t64.5 -133.5q0 -59 -36 -97t-95 -38q-51 0 -88 33t-37 86q0 51 30.5 87t65.5 36h14q-6 10 -21.5 15t-41.5 5q-61 0 -92 -38.5t-31 -104.5q0 -27 27.5 -128t27.5 -200h127v-61h-127v-748h127v-61h-530zM72 0v61h121v748h-121v61h121v27q0 125 23.5 218 t80.5 159.5t113.5 94.5t126.5 28q86 0 150.5 -49.5t64.5 -133.5q0 -59 -36 -97t-95 -38q-51 0 -88 33t-37 86q0 51 30.5 87t65.5 36h14q-6 10 -21.5 15t-41.5 5q-61 0 -92 -38.5t-31 -104.5q0 -27 27.5 -128t27.5 -200h127v-61h-127v-748h127v-61h-530z" />
<glyph unicode="&#xfb04;" horiz-adv-x="1992" d="M1409 0v61h121v1244h-121v61h211h33q63 0 93 10t71 54v-1369h119v-61h-527zM748 0v61h121v748h-121v61h121v27q0 125 23.5 218t80.5 159.5t113.5 94.5t126.5 28q86 0 150.5 -49.5t64.5 -133.5q0 -59 -36 -97t-95 -38q-51 0 -88 33t-37 86q0 51 30.5 87t65.5 36h14 q-6 10 -21.5 15t-41.5 5q-61 0 -92 -38.5t-31 -104.5q0 -27 27.5 -128t27.5 -200h127v-61h-127v-748h127v-61h-530zM72 0v61h121v748h-121v61h121v27q0 125 23.5 218t80.5 159.5t113.5 94.5t126.5 28q86 0 150.5 -49.5t64.5 -133.5q0 -59 -36 -97t-95 -38q-51 0 -88 33 t-37 86q0 51 30.5 87t65.5 36h14q-6 10 -21.5 15t-41.5 5q-61 0 -92 -38.5t-31 -104.5q0 -27 27.5 -128t27.5 -200h127v-61h-127v-748h127v-61h-530z" />
<glyph horiz-adv-x="655" d="M70 0v61h120v748h-120v61h213h30q61 0 93 8.5t71 43.5v-861h121v-61h-528z" />
<glyph horiz-adv-x="1024" d="M199 1073q18 86 60 172t161 86q53 0 174 -48t154 -48q41 0 57 30.5t26 65.5h48q-16 -86 -55.5 -173t-151.5 -87q-59 0 -195.5 54.5t-150.5 54.5q-39 0 -54.5 -35t-25.5 -72h-47z" />
<glyph horiz-adv-x="1024" d="M301 1208q0 86 61.5 149.5t149.5 63.5t150.5 -62.5t62.5 -150.5q0 -86 -62.5 -148.5t-150.5 -62.5q-86 0 -148.5 62.5t-62.5 148.5zM389 1208q0 -51 36 -87t87 -36t87 36t36 87t-36 87t-87 36t-87 -36t-36 -87z" />
</font>
</defs>
</svg>
